<svg xmlns="http://www.w3.org/2000/svg" width="77.11" height="122" viewBox="0 0 77.11 122"><defs><style>.cls-1{fill:#a9b1ab;}</style></defs><title>Modulo11</title><g id="Layer_1" data-name="Layer 1"><path class="cls-1" d="M77.11,91.89V75H70.83a33,33,0,0,0-3.48-8.41l4.44-4.44L59.85,50.21l-4.44,4.44A33,33,0,0,0,47,51.17V44.89H40.34V30.3a22.92,22.92,0,0,0,4.37.42A22.63,22.63,0,0,0,60.82,24a22.87,22.87,0,0,0,5.9-22l-.27-1-1-.27A22.88,22.88,0,0,0,59.55,0,22.73,22.73,0,0,0,37.71,16.35,22.72,22.72,0,0,0,17.56,4.18a22.9,22.9,0,0,0-5.9.77l-1,.27-.27,1a22.87,22.87,0,0,0,5.9,22A22.63,22.63,0,0,0,32.4,34.9h0a22.91,22.91,0,0,0,4.37-.42V44.89H30.11v6.28a33,33,0,0,0-8.41,3.49l-4.44-4.44L5.32,62.15l4.44,4.44A33,33,0,0,0,6.28,75H0V91.89H6.28a33,33,0,0,0,3.49,8.41l-4.44,4.44,11.94,11.94,4.44-4.44a33,33,0,0,0,8.41,3.49V122H47v-6.28a33,33,0,0,0,8.41-3.49l4.44,4.44,11.94-11.94-4.44-4.44a33,33,0,0,0,3.49-8.41ZM46,9.19A19.09,19.09,0,0,1,59.55,3.57a19.35,19.35,0,0,1,4,.41A19.3,19.3,0,0,1,58.3,21.53a19.09,19.09,0,0,1-13.59,5.63c-.59,0-1.18,0-1.77-.09L57.48,12.54,55,10,40.42,24.55A19.29,19.29,0,0,1,46,9.19ZM36.69,28.72,23.84,15.87l-2.52,2.52L34.17,31.24c-.59.05-1.18.09-1.77.09h0A19.09,19.09,0,0,1,18.81,25.7,19.3,19.3,0,0,1,13.6,8.15a19.35,19.35,0,0,1,4-.41,19.09,19.09,0,0,1,13.59,5.63A19.3,19.3,0,0,1,36.69,28.72Zm30.49,60.9a29,29,0,0,1-4,9.69l-.77,1.19,3.87,3.87-6.78,6.78-3.87-3.87-1.19.77a29,29,0,0,1-9.69,4l-1.38.3v5.46H33.76v-5.46l-1.38-.3a29,29,0,0,1-9.69-4l-1.19-.77-3.87,3.87-6.78-6.78,3.87-3.87-.77-1.19a29,29,0,0,1-4-9.69l-.3-1.38H4.17V78.65H9.63l.3-1.38a29,29,0,0,1,4-9.69l.77-1.19-3.87-3.87,6.78-6.78,3.87,3.87,1.19-.77a29,29,0,0,1,9.69-4l1.38-.3V49.06h9.59v5.46l1.38.3a29,29,0,0,1,9.69,4l1.19.77,3.87-3.87,6.78,6.78-3.87,3.87.77,1.19a29,29,0,0,1,4,9.69l.3,1.38h5.46v9.59H67.48Z"/><path class="cls-1" d="M38.56,60.41a23,23,0,1,0,23,23A23.06,23.06,0,0,0,38.56,60.41Zm0,42.5A19.47,19.47,0,1,1,58,83.44,19.49,19.49,0,0,1,38.56,102.91Z"/><path class="cls-1" d="M38.56,67.23A16.22,16.22,0,1,0,54.77,83.44,16.24,16.24,0,0,0,38.56,67.23Zm0,28.87A12.65,12.65,0,1,1,51.21,83.44,12.67,12.67,0,0,1,38.56,96.1Z"/></g></svg>