<svg xmlns="http://www.w3.org/2000/svg" width="57.07" height="100" viewBox="0 0 57.07 100"><defs><style>.cls-1{fill:#a9b1ab;}</style></defs><title>Modulo5</title><g id="Layer_1" data-name="Layer 1"><path class="cls-1" d="M33.46,70.9a2,2,0,0,0-2,2V85.07a2,2,0,0,0,3.91,0V72.85A2,2,0,0,0,33.46,70.9Z"/><path class="cls-1" d="M33.46,64.67a2,2,0,0,0-2,2v.06a2,2,0,1,0,3.91,0v-.06A2,2,0,0,0,33.46,64.67Z"/><path class="cls-1" d="M16.16,13.34h0a2,2,0,1,0,0,2.77A1.95,1.95,0,0,0,16.16,13.34Z"/><path class="cls-1" d="M43.7,13.31a2,2,0,1,0,0,2.77h0A2,2,0,0,0,43.7,13.31Z"/><path class="cls-1" d="M31.92,30.47c4.73,0,13.17-.85,18.73-6.31,7.5-7.36,6.46-20.29,6.26-22.22A2,2,0,0,0,55.09.09C54,0,40.94-1,33.27,6.55a20.41,20.41,0,0,0-4.73,7.53A20.4,20.4,0,0,0,23.8,6.55C16.17-.94,3.2,0,2,.09A2,2,0,0,0,.17,1.9C0,3.67-1.13,16.74,6.42,24.16c5.56,5.46,14,6.31,18.73,6.31l1.42,0v9.79H14.81a2,2,0,1,0,0,3.91h.86v43a12.89,12.89,0,1,0,25.78,0v-43h.86a2,2,0,0,0,0-3.91H30.48V30.44C30.91,30.46,31.39,30.47,31.92,30.47ZM36,9.34c5.11-5,13.57-5.47,17.13-5.42.15,3.65-.09,12.43-5.22,17.46-4.09,4-10.44,5-14.66,5.15l5.85-5.85a2,2,0,0,0-2.76-2.76l-5.78,5.78C30.81,19.52,31.92,13.34,36,9.34ZM20.73,17.91A2,2,0,1,0,18,20.67l5.86,5.86c-4.22-.16-10.56-1.13-14.66-5.16C4,16.34,3.8,7.56,3.94,3.91c3.55,0,12,.41,17.13,5.42,4.08,4,5.19,10.18,5.44,14.35ZM19.58,44.14h7v6.44h-7ZM34,50.58H30.48V44.14h7.07v43a9,9,0,1,1-18,0V54.49H34a2,2,0,1,0,0-3.91Z"/><polygon class="cls-1" points="6.42 24.16 6.42 24.16 6.42 24.16 6.42 24.16"/></g></svg>