<svg xmlns="http://www.w3.org/2000/svg" width="94" height="59.11" viewBox="0 0 94 59.11"><defs><style>.cls-1{fill:#a9b1ab;}</style></defs><title>Modulo13</title><g id="Layer_1" data-name="Layer 1"><path class="cls-1" d="M92.15,55.44H69V50.69a10.82,10.82,0,0,1,.9-4.34,4.14,4.14,0,0,1,.59,2.51c0,3.38,3.61,4.71,5.74,5h.22a9.12,9.12,0,0,0,2.8-.73c2.75-1.21,3.16-3.18,3.16-4.24,0-2.27.63-2.78,2.15-4a21.44,21.44,0,0,0,1.87-1.63c.71-.71,1.7-2.2,2.15-7,.11-1.15.16-2.24.19-3.08a7.07,7.07,0,0,0,3.38-2A7.45,7.45,0,0,0,94,25.41,1.82,1.82,0,0,0,93.2,24a1.79,1.79,0,0,0-1.58-.24,2.71,2.71,0,0,1-1.66,0l-.07,0A8.09,8.09,0,0,0,90.29,20a7.41,7.41,0,0,0-2.78-5,1.84,1.84,0,0,0-2.9,1.41,4.64,4.64,0,0,1-1,2.81l-.73-2.26A24.39,24.39,0,0,0,59.56,0H18.45A15.53,15.53,0,0,0,2.94,15.51V31.06A5.24,5.24,0,0,0,0,35.87a16.14,16.14,0,0,0,1,4.74c.94,2.61,2.22,3.93,3.81,3.93s2.87-1.32,3.81-3.93a16.14,16.14,0,0,0,1-4.74,5.24,5.24,0,0,0-2.94-4.81V15.51A11.86,11.86,0,0,1,15.59,4a19.6,19.6,0,0,0-1.76,1.54,19.29,19.29,0,0,0-4.6,7.22l-.07.16a19.21,19.21,0,0,0,4,19.39h0l.2.22.05,0a19.28,19.28,0,0,0,2,1.83,7.29,7.29,0,0,1,2.79,5.73l.06,15.28H1.84a1.84,1.84,0,1,0,0,3.67H35.56a1.84,1.84,0,0,0,0-3.67H33.72V50.69a10.81,10.81,0,0,1,1.85-6.06,14.43,14.43,0,0,0,1.93-4.17H50.81a14.44,14.44,0,0,0,1.93,4.17,10.82,10.82,0,0,1,1.85,6.06v4.75H48.16a1.84,1.84,0,1,0,0,3.67h44a1.84,1.84,0,0,0,0-3.67ZM4.78,40.24a13.1,13.1,0,0,1-1.11-4.37c0-.84.51-1.54,1.11-1.54s1.11.71,1.11,1.54A13.1,13.1,0,0,1,4.78,40.24Zm74,8.62c0,.6-1.38,1.12-2.29,1.28-.9-.17-2.29-.68-2.29-1.28,0-.27,0-.52,0-.76h4.62C78.76,48.34,78.75,48.6,78.75,48.86Zm7.92-27.69a4.62,4.62,0,0,1-.81,2.44q-.45-.38-.92-.72A8.59,8.59,0,0,0,86.68,21.17ZM54.07,3.67a11.79,11.79,0,0,1-10,5.56A11.79,11.79,0,0,1,34,3.67ZM17.65,29.46H15.53A15.61,15.61,0,0,1,12.2,15.65l3.35.61a8.94,8.94,0,0,1,7.15,7.15,5.12,5.12,0,0,1-5,6ZM65.35,50.69v4.75H63.64V50.69s0-.09,0-.13a14.47,14.47,0,0,0-2.47-8,10.79,10.79,0,0,1-1.66-4L58,30.86a1.84,1.84,0,0,0-3.61.68l1.45,7.68a14.44,14.44,0,0,0,2.22,5.41A10.82,10.82,0,0,1,60,50.69v4.75H58.25V50.69a14.47,14.47,0,0,0-2.47-8.11,10.79,10.79,0,0,1-1.66-4l-1.45-7.68a1.84,1.84,0,0,0-3.61.68l1,5.25H38.25l1-5.25a1.84,1.84,0,0,0-3.61-.68l-1.45,7.68a10.8,10.8,0,0,1-1.66,4,14.48,14.48,0,0,0-2.47,8.11v4.75H27.89V50.69a10.82,10.82,0,0,1,1.85-6.06A14.44,14.44,0,0,0,32,39.22l1.45-7.68a1.84,1.84,0,0,0-3.61-.68l-1.45,7.68a10.79,10.79,0,0,1-1.66,4,14.47,14.47,0,0,0-2.47,8.11v4.75H22L21.9,40.15A10.93,10.93,0,0,0,19.22,33,8.79,8.79,0,0,0,26.3,22.75a12.64,12.64,0,0,0-10.1-10.1l-2.72-.5A15.61,15.61,0,0,1,27.39,3.67H29.9A15.46,15.46,0,0,0,44.06,12.9,15.46,15.46,0,0,0,58.21,3.67h1.35a20.73,20.73,0,0,1,19.78,14.4l.83,2.57a14.48,14.48,0,0,0-8.13.21,4.86,4.86,0,0,1-3.62-4.48A1.84,1.84,0,0,0,65.53,15a7.41,7.41,0,0,0-2.78,5,8.09,8.09,0,0,0,.39,3.68,2.7,2.7,0,0,1-1.52,0,1.84,1.84,0,0,0-2.36,1.65,7.45,7.45,0,0,0,1.81,5.77A7,7,0,0,0,64.14,33c0,.86.08,2,.2,3.25.46,4.82,1.45,6.32,2.15,7,.2.2.4.39.59.56A14.46,14.46,0,0,0,65.35,50.69ZM68,22.85c-.3.22-.6.45-.88.68h0a4.6,4.6,0,0,1-.76-2.37A8.6,8.6,0,0,0,68,22.85ZM66.2,29.64a3.92,3.92,0,0,1-2.47-1.06,2.9,2.9,0,0,1-.65-1.17,6.49,6.49,0,0,0,1.37-.31,2.67,2.67,0,0,1,.94-.14,4.8,4.8,0,0,1,.91.15,6.13,6.13,0,0,1,2.16,1.27,3.78,3.78,0,0,1,.54,1,1.84,1.84,0,0,0,1.8,1.48h0a1.83,1.83,0,0,0,1.64-2.65,7.39,7.39,0,0,0-1.09-2v0L71.3,26h0l-.21-.23.07.07-.08-.08-.34-.32a10.84,10.84,0,0,1,11.7.14l-.28.26-.08.07.07-.06-.21.23h0l-.08.11v0a7.43,7.43,0,0,0-1.07,2,1.82,1.82,0,0,0-.17.58l0,.12h0s0,.07,0,.1a1.84,1.84,0,0,0,1.84,1.84h0a1.84,1.84,0,0,0,1.8-1.49,3.87,3.87,0,0,1,.5-.9c.38-.35,2.22-1.89,4-1.28a6.47,6.47,0,0,0,1.37.31,2.91,2.91,0,0,1-.63,1.15A3.92,3.92,0,0,1,87,29.72H87a1.84,1.84,0,0,0-1.83,1.85c0,4-.6,8.35-1.3,9.08A18.15,18.15,0,0,1,82.29,42a10.29,10.29,0,0,0-2.41,2.43H73.06A10.29,10.29,0,0,0,70.65,42a18.18,18.18,0,0,1-1.56-1.35c-.65-.68-1.24-4.5-1.29-8.28a1.84,1.84,0,0,0-1.59-2.72Z"/></g></svg>