<svg xmlns="http://www.w3.org/2000/svg" width="97" height="82.55" viewBox="0 0 97 82.55"><defs><style>.cls-1,.cls-3{fill:none;stroke:#a9b1ab;stroke-linejoin:round;stroke-width:5px;}.cls-2{fill:#a9b1ab;}.cls-3{stroke-linecap:round;}</style></defs><title>Modulo10</title><g id="Layer_1" data-name="Layer 1"><line class="cls-1" x1="9.5" y1="80.5" x2="9.5" y2="37.5"/><path class="cls-2" d="M93.72,82.55H2.12a2.12,2.12,0,1,1,0-4.24h91.6a2.12,2.12,0,1,1,0,4.24Z"/><path class="cls-2" d="M84.27,69.82A12.73,12.73,0,1,1,97,57.08,12.74,12.74,0,0,1,84.27,69.82Zm0-21.22a8.49,8.49,0,1,0,8.49,8.49A8.5,8.5,0,0,0,84.27,48.6Z"/><path class="cls-2" d="M84.27,82.55a2.12,2.12,0,0,1-2.12-2.12V59.21a2.12,2.12,0,0,1,4.24,0V80.42A2.12,2.12,0,0,1,84.27,82.55Z"/><rect class="cls-1" x="36.5" y="46.5" width="28" height="33"/><line class="cls-1" x1="46.5" y1="47" x2="46.5" y2="38"/><path class="cls-1" d="M4.5,29.5h48a0,0,0,0,1,0,0v2.87a5.13,5.13,0,0,1-5.13,5.13H9.63A5.13,5.13,0,0,1,4.5,32.37V29.5A0,0,0,0,1,4.5,29.5Z"/><path class="cls-1" d="M45.5,16.5h29s2-14-9-14-11,6-11,6S44.5,4.5,45.5,16.5Z"/><line class="cls-3" x1="18.5" y1="46.5" x2="18.5" y2="51.5"/><line class="cls-3" x1="27.5" y1="46.5" x2="27.5" y2="51.5"/><line class="cls-3" x1="18.5" y1="59.5" x2="18.5" y2="64.5"/><line class="cls-3" x1="27.5" y1="59.5" x2="27.5" y2="64.5"/><line class="cls-3" x1="27.5" y1="73.5" x2="27.5" y2="78.5"/></g></svg>