<svg xmlns="http://www.w3.org/2000/svg" width="96.51" height="78.08" viewBox="0 0 96.51 78.08"><defs><style>.cls-1{fill:#a9b1ab;}</style></defs><title>Modulo4</title><g id="Layer_1" data-name="Layer 1"><path class="cls-1" d="M41,38.33a2.67,2.67,0,0,0-2.44-1.58H27.79L38.9,19.39a2.67,2.67,0,0,0-2.25-4.1h-14a2.67,2.67,0,0,0-2.23,1.2L.44,46.85A2.67,2.67,0,0,0,2.67,51h9.14L3.4,74.52a2.67,2.67,0,0,0,4.49,2.69l32.6-36A2.67,2.67,0,0,0,41,38.33Zm-28,25.37L18.1,49.21a2.67,2.67,0,0,0-2.51-3.56h-8l16.48-25h7.69L20.68,38a2.67,2.67,0,0,0,2.25,4.1h9.58Z"/><path class="cls-1" d="M94.81,44.29h-12a1.7,1.7,0,1,0,0,3.4h12a1.7,1.7,0,1,0,0-3.4Z"/><path class="cls-1" d="M88.45,10.22h-12a1.7,1.7,0,0,0,0,3.4h12a1.7,1.7,0,0,0,0-3.4Z"/><path class="cls-1" d="M63.63,25.5H47.51a1.7,1.7,0,0,0,0,3.4H63.63A10.86,10.86,0,0,1,74.47,39.75a8.35,8.35,0,0,1-8.34,8.34,6.34,6.34,0,0,1-6.33-6.33A4.73,4.73,0,0,1,64.53,37a1.7,1.7,0,0,0,0-3.4,8.13,8.13,0,0,0-8.12,8.12,9.74,9.74,0,0,0,9.73,9.73A11.75,11.75,0,0,0,77.87,39.75,14.26,14.26,0,0,0,63.63,25.5Z"/><path class="cls-1" d="M61,0a8.1,8.1,0,0,0-8.09,8.09,1.7,1.7,0,1,0,3.4,0A4.7,4.7,0,0,1,61,3.4,6.29,6.29,0,0,1,67.3,9.69,8.29,8.29,0,0,1,59,18H47.51a1.7,1.7,0,0,0,0,3.4H59A11.7,11.7,0,0,0,70.7,9.69,9.7,9.7,0,0,0,61,0Z"/><path class="cls-1" d="M52.8,33h-5.3a1.7,1.7,0,0,0,0,3.4h5.3a1.7,1.7,0,0,0,0-3.4Z"/></g></svg>