<svg xmlns="http://www.w3.org/2000/svg" width="83.56" height="83.39" viewBox="0 0 83.56 83.39"><defs><style>.cls-1{fill:#a9b1ab;}</style></defs><title>Modulo2</title><g id="Layer_1" data-name="Layer 1"><path class="cls-1" d="M59.86,9.83,43.15.36a2.79,2.79,0,0,0-2.75,0L23.7,9.83a2.79,2.79,0,0,0-1.41,2.42V32.13a2.79,2.79,0,0,0,1.41,2.42L40.41,44a2.79,2.79,0,0,0,2.75,0l16.71-9.47a2.79,2.79,0,0,0,1.41-2.42V12.26A2.79,2.79,0,0,0,59.86,9.83ZM55.7,30.51,41.78,38.4,27.86,30.51V13.88L41.78,6,55.7,13.88Z"/><path class="cls-1" d="M48.72,16.33l-5.56-3.16A2.79,2.79,0,1,0,40.4,18l4.15,2.36v5.27a2.79,2.79,0,1,0,5.57,0V18.75A2.79,2.79,0,0,0,48.72,16.33Z"/><path class="cls-1" d="M82.15,48.84,65.44,39.37a2.79,2.79,0,0,0-2.75,0L46,48.84a2.79,2.79,0,0,0-1.41,2.42V71.13A2.79,2.79,0,0,0,46,73.56L62.69,83a2.79,2.79,0,0,0,2.75,0l16.71-9.47a2.79,2.79,0,0,0,1.41-2.42V51.26A2.79,2.79,0,0,0,82.15,48.84ZM78,69.51,64.07,77.4,50.15,69.51V52.89L64.07,45,78,52.89Z"/><path class="cls-1" d="M71,55.33l-5.56-3.16A2.79,2.79,0,0,0,62.69,57l4.15,2.36v5.27a2.79,2.79,0,1,0,5.57,0V57.75A2.79,2.79,0,0,0,71,55.33Z"/><path class="cls-1" d="M37.57,48.84,20.87,39.37a2.79,2.79,0,0,0-2.75,0L1.41,48.84A2.79,2.79,0,0,0,0,51.26V71.13a2.79,2.79,0,0,0,1.41,2.42L18.12,83a2.79,2.79,0,0,0,2.75,0l16.71-9.47A2.79,2.79,0,0,0,39,71.13V51.26A2.79,2.79,0,0,0,37.57,48.84ZM33.41,69.51,19.49,77.4,5.57,69.51V52.89L19.49,45l13.92,7.89Z"/><path class="cls-1" d="M26.43,55.33l-5.56-3.16A2.79,2.79,0,1,0,18.12,57l4.15,2.36v5.27a2.79,2.79,0,1,0,5.57,0V57.75A2.79,2.79,0,0,0,26.43,55.33Z"/></g></svg>