<?xml version="1.0" encoding="utf-8"?>
<!-- Generator: Adobe Illustrator 19.2.1, SVG Export Plug-In . SVG Version: 6.00 Build 0)  -->
<svg version="1.1" id="Capa_1" xmlns="http://www.w3.org/2000/svg" xmlns:xlink="http://www.w3.org/1999/xlink" x="0px" y="0px"
	 width="150px" height="150px" viewBox="0 0 150 150" style="enable-background:new 0 0 150 150;" xml:space="preserve">
<style type="text/css">
	.st0{fill:#A9B1AB;}
</style>
<title>calendario_act</title>
<g>
	<g>
		<g>
			<path class="st0" d="M102.3,41.8c-0.5-0.5-1.1-0.7-1.7-0.7c-0.6,0-1.3,0.3-1.7,0.7c-0.5,0.5-0.7,1.1-0.7,1.7
				c0,0.6,0.3,1.3,0.7,1.7c0.5,0.5,1.1,0.7,1.7,0.7c0.6,0,1.3-0.3,1.7-0.7c0.5-0.5,0.7-1.1,0.7-1.7C103,42.9,102.7,42.2,102.3,41.8z
				"/>
		</g>
	</g>
	<g>
		<g>
			<path class="st0" d="M124.9,41.1h-15.5c-1.3,0-2.4,1.1-2.4,2.4c0,1.3,1.1,2.4,2.4,2.4h15.5c4,0,7.3,3.3,7.3,7.3v34.9
				c0,4-3.3,7.3-7.3,7.3h-3.4c-0.6,0-1.3,0.3-1.7,0.7l-8,8l-8-8c-0.5-0.5-1.1-0.7-1.7-0.7h-32c-4,0-7.3-3.3-7.3-7.3v-8.7
				c0-1.3-1.1-2.4-2.4-2.4S58,78,58,79.4v8.7c0,6.7,5.4,12.1,12.1,12.1h31l9,9c0.5,0.5,1.1,0.7,1.7,0.7s1.2-0.2,1.7-0.7l9-9h2.4
				c6.7,0,12.1-5.4,12.1-12.1V53.2C137,46.5,131.6,41.1,124.9,41.1z"/>
		</g>
	</g>
	<g>
		<g>
			<path class="st0" d="M79.9,13H25.1C18.4,13,13,18.4,13,25.1V60c0,6.7,5.4,12.1,12.1,12.1h5.1l9,9c0.5,0.5,1.1,0.7,1.7,0.7
				c0.6,0,1.2-0.2,1.7-0.7l9-9h28.3C86.5,72.1,92,66.7,92,60V25.1C92,18.4,86.5,13,79.9,13z M87.1,60c0,4-3.3,7.3-7.3,7.3H50.6
				c-0.6,0-1.3,0.3-1.7,0.7l-8,8l-8-8c-0.5-0.5-1.1-0.7-1.7-0.7h-6.1c-4,0-7.3-3.3-7.3-7.3V25.1c0-4,3.3-7.3,7.3-7.3h54.8
				c4,0,7.3,3.3,7.3,7.3V60z"/>
		</g>
	</g>
	<g>
		<g>
			<path class="st0" d="M107.2,121.2l-21-11.3c-0.4-0.2-0.7-0.3-1.1-0.3H21.5c-4.7,0-8.6,3.8-8.6,8.6v10.3c0,4.7,3.8,8.6,8.6,8.6H85
				c0.4,0,0.8-0.1,1.1-0.3l21-11.3c0.8-0.4,1.3-1.2,1.3-2.1C108.4,122.5,108,121.6,107.2,121.2z M28.8,132.2h-7.3
				c-2,0-3.7-1.7-3.7-3.7v-10.3c0-2,1.7-3.7,3.7-3.7h7.3V132.2z M82.6,132.2h-49v-6.6h30.8c1.3,0,2.4-1.1,2.4-2.4
				c0-1.3-1.1-2.4-2.4-2.4H33.6v-6.2h49V132.2z M87.4,130.6v-14.4l13.5,7.2L87.4,130.6z"/>
		</g>
	</g>
	<g>
		<g>
			<path class="st0" d="M75.5,121.4c-0.5-0.5-1.1-0.7-1.7-0.7s-1.3,0.3-1.7,0.7s-0.7,1.1-0.7,1.7c0,0.6,0.3,1.3,0.7,1.7
				c0.5,0.5,1.1,0.7,1.7,0.7s1.3-0.3,1.7-0.7c0.5-0.5,0.7-1.1,0.7-1.7C76.2,122.5,76,121.9,75.5,121.4z"/>
		</g>
	</g>
</g>
</svg>
