<svg xmlns="http://www.w3.org/2000/svg" width="150" height="150" viewBox="0 0 150 150"><defs><style>.cls-1{fill:#0077a5;}</style></defs><title>aprendizaje_invertido</title><g id="Layer_1" data-name="Layer 1"><path class="cls-1" d="M81.25,126.1h-11a2.49,2.49,0,1,0,0,5h11a2.49,2.49,0,1,0,0-5Z"/><path class="cls-1" d="M101.35,34.11a2.49,2.49,0,1,0-1.76.73A2.51,2.51,0,0,0,101.35,34.11Z"/><path class="cls-1" d="M138,30.13l0,0-37.34-18a2.49,2.49,0,0,0-2.16,0l-37.34,18a2.49,2.49,0,0,0,0,4.48l14.55,7V57a2.48,2.48,0,0,0,0,.35h-.69a8.3,8.3,0,0,0,0,16.59h.8A23.88,23.88,0,0,0,86,91H62.82a9,9,0,0,0-4.05,1V55.23a4.06,4.06,0,0,1,4.05-4.05h6.43a2.49,2.49,0,0,0,0-5H62.82A9,9,0,0,0,56.28,49a9,9,0,0,0-6.54-2.82H14.46A2.49,2.49,0,0,0,12,48.69V103.2a2.49,2.49,0,0,0,2.49,2.49h3v12.19h-3A2.49,2.49,0,0,0,12,120.37v4.48a14.45,14.45,0,0,0,14.44,14.44H125a14.45,14.45,0,0,0,14.44-14.44v-4.48a2.49,2.49,0,0,0-2.49-2.49h-3V81.29a2.49,2.49,0,0,0-5,0v36.59H22.42V105.69H98.1a2.49,2.49,0,0,0,2.49-2.49v-8a23.9,23.9,0,0,0,22.73-21.28h.8a8.3,8.3,0,0,0,0-16.59h-.69a2.48,2.48,0,0,0,0-.35V41.62l11-5.3V47.68a2.49,2.49,0,1,0,5,0V32.35A2.49,2.49,0,0,0,138,30.13Zm-3.61,94.72a9.47,9.47,0,0,1-9.46,9.46H26.41a9.47,9.47,0,0,1-9.46-9.46v-2H134.44ZM99.59,17.1,126,29.86H106.59a2.49,2.49,0,1,0,0,5H126L99.59,47.61,68,32.35ZM71.74,65.65a3.32,3.32,0,0,1,3.32-3.32h.67V69h-.67A3.32,3.32,0,0,1,71.74,65.65ZM16.95,51.18H49.73a4.06,4.06,0,0,1,4.05,4.05V92a9,9,0,0,0-4.05-1H16.95Zm0,44.81H49.73A4.06,4.06,0,0,1,53.79,100a2.49,2.49,0,0,0,.1.68H16.95Zm41.72,4.73a2.48,2.48,0,0,0,.1-.68A4.06,4.06,0,0,1,62.82,96H95.61v4.73H58.67ZM99.59,90.28A18.91,18.91,0,0,1,80.7,71.39V60.83L98.59,68.7a2.49,2.49,0,0,0,2,0l17.89-7.87V71.39A18.91,18.91,0,0,1,99.59,90.28Zm27.85-24.62A3.32,3.32,0,0,1,124.12,69h-.67V62.34h.67A3.32,3.32,0,0,1,127.44,65.65Zm-9-10.26L99.59,63.7,80.7,55.39V44l17.81,8.59a2.49,2.49,0,0,0,2.16,0L118.48,44V55.39Z"/><path class="cls-1" d="M136.93,56.3a2.49,2.49,0,1,0,1.76.73A2.51,2.51,0,0,0,136.93,56.3Z"/><path class="cls-1" d="M43.53,74.57a2.49,2.49,0,1,0,1.76.73A2.51,2.51,0,0,0,43.53,74.57Z"/><path class="cls-1" d="M34.12,74.58h-8a2.49,2.49,0,1,0,0,5h8a2.49,2.49,0,0,0,0-5Z"/><path class="cls-1" d="M26.16,67.6H43.53a2.49,2.49,0,1,0,0-5H26.16a2.49,2.49,0,1,0,0,5Z"/></g></svg>