<svg xmlns="http://www.w3.org/2000/svg" width="31.81" height="37.83" viewBox="0 0 31.81 37.83"><defs><style>.cls-1{fill:#f7741e;}</style></defs><title>audio_naranja</title><g id="Layer_1" data-name="Layer 1"><polygon class="cls-1" points="1.52 5.67 1.52 13.87 1.52 35.94 0.01 35.94 0.01 13.87 0.01 5.67 1.52 5.67"/><path class="cls-1" d="M0,35.94a2.11,2.11,0,0,0,2.27,1.89H25a2.11,2.11,0,0,0,2.27-1.89V34h2.27a2.11,2.11,0,0,0,2.27-1.89V6.3a.59.59,0,0,0-.22-.45L24.78.19A.85.85,0,0,0,24.24,0H6.82A2.11,2.11,0,0,0,4.55,1.89V3.78H2.28A2.11,2.11,0,0,0,0,5.67V8.2a.7.7,0,0,0,.76.63.7.7,0,0,0,.76-.63V5.67A.7.7,0,0,1,2.28,5H4.55V32.15A2.11,2.11,0,0,0,6.82,34H25.75v1.89a.7.7,0,0,1-.76.63H2.28a.7.7,0,0,1-.76-.63V13.24a.7.7,0,0,0-.76-.63.7.7,0,0,0-.76.63ZM25,2.15l4.23,3.52H25Zm-18.93,30V1.89a.7.7,0,0,1,.76-.63H23.48V5.67A1.41,1.41,0,0,0,25,6.93h5.3V32.15a.7.7,0,0,1-.76.63H6.82A.7.7,0,0,1,6.07,32.15Z"/><path class="cls-1" d="M.77,11.35a.77.77,0,0,0,.7-.39.56.56,0,0,0-.16-.69l-.11-.08-.14-.06-.14,0H.77a.88.88,0,0,0-.54.18.56.56,0,0,0-.21.57.67.67,0,0,0,.46.46A.89.89,0,0,0,.77,11.35Z"/><path class="cls-1" d="M23.38,10.21a1.75,1.75,0,0,0-1.61.15L15.64,14.5H12.12a2.11,2.11,0,0,0-2.27,1.89v5a2.11,2.11,0,0,0,2.27,1.89h3.52l6.14,4.14a1.77,1.77,0,0,0,1.6.15,1.26,1.26,0,0,0,.86-1.14V11.35A1.25,1.25,0,0,0,23.38,10.21Zm-7,12a.85.85,0,0,0-.48-.14H12.12a.7.7,0,0,1-.76-.63v-5a.7.7,0,0,1,.76-.63h3.79a.85.85,0,0,0,.48-.14l6.34-4.28V26.48Z"/></g></svg>