<svg xmlns="http://www.w3.org/2000/svg" width="150" height="150" viewBox="0 0 150 150"><defs><style>.cls-1,.cls-2{fill:none;stroke:#0077a5;stroke-miterlimit:10;stroke-width:5px;}.cls-2{stroke-linecap:round;}</style></defs><title>autoplaneado</title><g id="Layer_1" data-name="Layer 1"><path class="cls-1" d="M14.07,141.5H97.64a4.18,4.18,0,0,0,4.18-4.18v-10A16.82,16.82,0,0,0,88.64,111l-18.35-4v-5.41a43.07,43.07,0,0,0,2.78-5,33.44,33.44,0,0,1,2.17-3.94c3-2.92,6.16-6.54,7.14-11.33s-.26-7.22-1-8.18c0-3.36,0-9.48-1.17-14-.13-5.42-1.19-8.65-3.74-11.42-1.91-2.07-4.61-2.52-6.78-2.89a12,12,0,0,1-2.07-.45,24.75,24.75,0,0,0-12-3.14C46.42,41.57,35,47.48,31.2,58.08c-1.09,3-1.09,7.5-1,12.65v2c-.67,1.31-1.91,3.76-.93,8.52s4.16,8.42,7.12,11.31a32.25,32.25,0,0,1,2.24,4,45.37,45.37,0,0,0,2.78,5V107l-18.35,4A16.77,16.77,0,0,0,9.89,127.29v10A4.18,4.18,0,0,0,14.07,141.5Z"/><polyline class="cls-2" points="101.81 29.86 101.81 45.4 113.61 57.52"/><path class="cls-2" d="M71.11,32.36s8.5-20.85,31.25-20.85,32.5,21.1,32.5,32.18-4.76,32.57-31.63,34.82a32,32,0,0,1-9.12-.5"/></g></svg>