<svg xmlns="http://www.w3.org/2000/svg" width="150" height="150" viewBox="0 0 150 150"><defs><style>.cls-1{fill:#a9b1ab;}</style></defs><title>calendario_act</title><g id="Layer_1" data-name="Layer 1"><path class="cls-1" d="M126.84,21.65h-12V18.13a7.55,7.55,0,1,0-15.1,0v3.52H57.47V18.13a7.55,7.55,0,0,0-15.1,0v3.62a2.51,2.51,0,0,0-.67-.09h-10A12.6,12.6,0,0,0,19.09,34.24V77.1a2.52,2.52,0,1,0,5,0V47.57h90.72a2.52,2.52,0,1,0,0-5H24.13v-8.3a7.56,7.56,0,0,1,7.55-7.55h10a2.52,2.52,0,0,0,.67-.09v3.24a7.55,7.55,0,0,0,15.1,0V26.69H99.74v3.15a7.55,7.55,0,0,0,15.1,0V26.69h12a7.56,7.56,0,0,1,7.55,7.55v95.62a4.53,4.53,0,0,1-9.06,0v-6.51a2.52,2.52,0,0,0-2.52-2.52H93.54a2.52,2.52,0,1,0,0,5h26.75v4a9.51,9.51,0,0,0,1.14,4.53H20.14a4.53,4.53,0,0,1-4.53-4.53v-4H71.94a2.52,2.52,0,1,0,0-5H46.79a20.63,20.63,0,1,0-26.89,0H13.1a2.52,2.52,0,0,0-2.52,2.52v6.51a9.57,9.57,0,0,0,9.56,9.56H129.85a9.57,9.57,0,0,0,9.56-9.56V34.24A12.6,12.6,0,0,0,126.84,21.65Zm-74.4,8.18a2.52,2.52,0,0,1-5,0V18.13a2.52,2.52,0,0,1,5,0Zm57.37,0a2.52,2.52,0,0,1-5,0V18.13a2.52,2.52,0,0,1,5,0ZM17.75,105.2a15.6,15.6,0,1,1,15.6,15.6A15.62,15.62,0,0,1,17.75,105.2Z"/><path class="cls-1" d="M126.64,47.57a2.52,2.52,0,1,0-1.78-.74A2.53,2.53,0,0,0,126.64,47.57Z"/><path class="cls-1" d="M82.17,121.56a2.52,2.52,0,1,0,1.78-.73A2.54,2.54,0,0,0,82.17,121.56Z"/><path class="cls-1" d="M67.51,106.2A9.56,9.56,0,1,0,58,96.64,9.57,9.57,0,0,0,67.51,106.2Zm0-14.09A4.53,4.53,0,1,1,63,96.64,4.53,4.53,0,0,1,67.51,92.11Z"/><path class="cls-1" d="M91,106.2a9.56,9.56,0,1,0-9.56-9.56A9.57,9.57,0,0,0,91,106.2Zm0-14.09a4.53,4.53,0,1,1-4.53,4.53A4.53,4.53,0,0,1,91,92.11Z"/><path class="cls-1" d="M114.48,106.2a9.56,9.56,0,1,0-9.56-9.56A9.57,9.57,0,0,0,114.48,106.2Zm0-14.09A4.53,4.53,0,1,1,110,96.64,4.53,4.53,0,0,1,114.48,92.11Z"/><path class="cls-1" d="M53.59,70.47A9.56,9.56,0,1,0,44,80,9.57,9.57,0,0,0,53.59,70.47Zm-14.09,0A4.53,4.53,0,1,1,44,75,4.53,4.53,0,0,1,39.5,70.47Z"/><path class="cls-1" d="M91,80a9.56,9.56,0,1,0-9.56-9.56A9.57,9.57,0,0,0,91,80Zm0-14.09a4.53,4.53,0,1,1-4.53,4.53A4.53,4.53,0,0,1,91,65.94Z"/><path class="cls-1" d="M114.48,80a9.56,9.56,0,1,0-9.56-9.56A9.57,9.57,0,0,0,114.48,80Zm0-14.09A4.53,4.53,0,1,1,110,70.47,4.53,4.53,0,0,1,114.48,65.94Z"/><path class="cls-1" d="M67.51,80A9.56,9.56,0,1,0,58,70.47,9.57,9.57,0,0,0,67.51,80Zm0-14.09A4.53,4.53,0,1,1,63,70.47,4.53,4.53,0,0,1,67.51,65.94Z"/><path class="cls-1" d="M28.78,112.6a2.52,2.52,0,0,0,3.56,0l10-10a2.52,2.52,0,0,0-3.56-3.56l-8.19,8.19-2.8-2.8A2.52,2.52,0,1,0,24.2,108Z"/></g></svg>