<svg xmlns="http://www.w3.org/2000/svg" width="150" height="150" viewBox="0 0 150 150"><defs><style>.cls-1{fill:#0077a5;}</style></defs><title>constructivismo</title><g id="Layer_1" data-name="Layer 1"><path class="cls-1" d="M105.08,139.29H44.91a2.74,2.74,0,0,1-2.6-3.6l6.75-20.24a37.59,37.59,0,0,1-16-.91c-9.12-3-8.66-17.72-7.94-24.48H18.37A9,9,0,0,1,10.9,76L24,56.6a41.61,41.61,0,0,1,8.22-31.33C41.62,13.81,57.76,8,80.26,8v5.47c-20.78,0-35.5,5.13-43.75,15.26a36.61,36.61,0,0,0-6.91,28,2.75,2.75,0,0,1-.42,2.09L15.43,79.05a3.51,3.51,0,0,0-.61,2,3.56,3.56,0,0,0,3.56,3.54h9.92A2.74,2.74,0,0,1,31,87.78c-1.07,6.26-1.53,19.77,3.83,21.56,7.33,2.45,17.51,0,17.62-.06a2.74,2.74,0,0,1,3.26,3.52l-7,21h53.13a75.52,75.52,0,0,1,5.86-42.14l5,2.22a69.86,69.86,0,0,0-5,41.47l.13.68a2.74,2.74,0,0,1-2.69,3.24Z"/><path class="cls-1" d="M72.26,98.26h5.47v5.47H72.26Z"/><path class="cls-1" d="M77.73,109.2H83.2v5.47H77.73Z"/><path class="cls-1" d="M83.2,120.14h5.47v5.47H83.2Z"/><path class="cls-1" d="M94.14,79.11A24.62,24.62,0,1,1,118.76,54.5,24.62,24.62,0,0,1,94.14,79.11Zm0-43.77A19.15,19.15,0,1,0,113.29,54.5,19.15,19.15,0,0,0,94.14,35.35Z"/><path class="cls-1" d="M94.14,70.91A16.43,16.43,0,0,1,77.73,54.5H83.2A10.94,10.94,0,0,0,94.14,65.44Z"/><path class="cls-1" d="M110.55,54.5h-5.47A10.94,10.94,0,0,0,94.14,43.56V38.09A16.43,16.43,0,0,1,110.55,54.5Z"/><path class="cls-1" d="M99.61,101H88.67A2.74,2.74,0,0,1,86,98.71L84.29,88.64a35.32,35.32,0,0,1-7.31-3l-8.32,5.95a2.74,2.74,0,0,1-3.52-.29L57.4,83.51A2.74,2.74,0,0,1,57.1,80L63,71.66a35.32,35.32,0,0,1-3-7.32L49.92,62.66A2.74,2.74,0,0,1,47.64,60V49a2.74,2.74,0,0,1,2.28-2.7L60,44.65a35.32,35.32,0,0,1,3-7.31L57.1,29a2.74,2.74,0,0,1,.29-3.52l7.74-7.74a2.74,2.74,0,0,1,3.52-.29L77,23.4a35.32,35.32,0,0,1,7.32-3L86,10.28A2.74,2.74,0,0,1,88.67,8H99.61a2.74,2.74,0,0,1,2.7,2.28L104,20.36a35.32,35.32,0,0,1,7.31,3l8.32-5.95a2.74,2.74,0,0,1,3.52.29l7.74,7.74a2.74,2.74,0,0,1,.29,3.52l-5.95,8.32a35.32,35.32,0,0,1,3,7.32l10.08,1.68A2.74,2.74,0,0,1,140.64,49V60a2.74,2.74,0,0,1-2.28,2.7l-10.08,1.68a35.32,35.32,0,0,1-3,7.31L131.18,80a2.74,2.74,0,0,1-.29,3.52l-7.74,7.74a2.74,2.74,0,0,1-3.52.29l-8.32-5.95a35.32,35.32,0,0,1-7.32,3l-1.68,10.08A2.74,2.74,0,0,1,99.61,101ZM91,95.53H97.3L98.88,86A2.74,2.74,0,0,1,101,83.78,29.92,29.92,0,0,0,110,80a2.74,2.74,0,0,1,3,.09l7.89,5.63,4.46-4.46-5.63-7.89a2.74,2.74,0,0,1-.09-3,29.92,29.92,0,0,0,3.76-9,2.74,2.74,0,0,1,2.21-2.08l9.55-1.6V51.34l-9.54-1.59a2.74,2.74,0,0,1-2.21-2.08,29.92,29.92,0,0,0-3.76-9,2.74,2.74,0,0,1,.09-3l5.63-7.89-4.46-4.46L113,28.89a2.74,2.74,0,0,1-3,.09,29.92,29.92,0,0,0-9-3.76A2.74,2.74,0,0,1,98.9,23l-1.6-9.54H91L89.4,23a2.74,2.74,0,0,1-2.08,2.21,29.92,29.92,0,0,0-9,3.76,2.74,2.74,0,0,1-3-.09l-7.9-5.63L62.9,27.71l5.63,7.89a2.74,2.74,0,0,1,.09,3,29.92,29.92,0,0,0-3.76,9,2.74,2.74,0,0,1-2.21,2.08l-9.54,1.6v6.31l9.54,1.59a2.74,2.74,0,0,1,2.21,2.08,29.92,29.92,0,0,0,3.76,9,2.74,2.74,0,0,1-.09,3L62.9,81.27l4.46,4.46,7.89-5.63a2.74,2.74,0,0,1,3-.09,29.92,29.92,0,0,0,9,3.76A2.74,2.74,0,0,1,89.39,86Z"/></g></svg>