<svg xmlns="http://www.w3.org/2000/svg" width="34.39" height="29.08" viewBox="0 0 34.39 29.08"><defs><style>.cls-1{fill:#a9b1ab;}</style></defs><title>descarga</title><g id="Layer_1" data-name="Layer 1"><path class="cls-1" d="M16.84,0a1.1,1.1,0,0,0-1.1,1.1V18.33l-2.88-2.88A1.1,1.1,0,0,0,11.3,17l4.76,4.76a1.1,1.1,0,0,0,1.56,0L22.39,17a1.1,1.1,0,1,0-1.56-1.56l-2.88,2.88V1.1A1.1,1.1,0,0,0,16.84,0Zm0,0"/><path class="cls-1" d="M12.61,9.76a9.85,9.85,0,1,0-3.38,19.3,1.07,1.07,0,0,0,.15,0h18a7.17,7.17,0,0,0-.14-14.34h0a6.4,6.4,0,0,0-6-4.25,1.1,1.1,0,1,0,0,2.21,4.19,4.19,0,0,1,4.19,4.18A1.1,1.1,0,0,0,27.6,17a5,5,0,0,1-.19,9.89H9.86a7.65,7.65,0,1,1,2.14-15,1.1,1.1,0,0,0,.62-2.12Zm0,0"/></g></svg>