<svg xmlns="http://www.w3.org/2000/svg" width="150" height="150" viewBox="0 0 150 150"><defs><style>.cls-1{fill:#a9b1ab;}</style></defs><title>evaluacion</title><g id="Layer_1" data-name="Layer 1"><path class="cls-1" d="M63.58,24.66a2.61,2.61,0,1,0,0,5.22H97.69a2.61,2.61,0,0,0,0-5.22Z"/><path class="cls-1" d="M33.45,25.42a2.61,2.61,0,1,0,1.84-.76A2.63,2.63,0,0,0,33.45,25.42Z"/><path class="cls-1" d="M23.86,25.42a2.61,2.61,0,1,0,1.84-.76A2.63,2.63,0,0,0,23.86,25.42Z"/><path class="cls-1" d="M43,25.42a2.61,2.61,0,1,0,1.84-.76A2.63,2.63,0,0,0,43,25.42Z"/><path class="cls-1" d="M104.85,58.81a2.61,2.61,0,1,0,1.84-.76A2.63,2.63,0,0,0,104.85,58.81Z"/><path class="cls-1" d="M95.64,58H59a2.61,2.61,0,0,0,0,5.22H95.64a2.61,2.61,0,1,0,0-5.22Z"/><path class="cls-1" d="M98.25,75.26a2.61,2.61,0,0,0-2.61-2.61H59a2.61,2.61,0,0,0,0,5.22H95.64A2.61,2.61,0,0,0,98.25,75.26Z"/><path class="cls-1" d="M44.74,75.26H27.53V58a2.61,2.61,0,0,0-5.22,0V77.87a2.61,2.61,0,0,0,2.61,2.61H44.74a2.61,2.61,0,0,0,0-5.22Z"/><path class="cls-1" d="M83.81,98H69.39a2.61,2.61,0,0,0,0,5.22H83.81a2.61,2.61,0,0,0,0-5.22Z"/><path class="cls-1" d="M59,103.21a2.61,2.61,0,1,0-1.84-.76A2.63,2.63,0,0,0,59,103.21Z"/><path class="cls-1" d="M59,117.82h24.8a2.61,2.61,0,1,0,0-5.22H59a2.61,2.61,0,0,0,0,5.22Z"/><path class="cls-1" d="M44.74,95.39H24.92A2.61,2.61,0,0,0,22.31,98v19.82a2.61,2.61,0,0,0,2.61,2.61H44.74a2.61,2.61,0,0,0,2.61-2.61V98A2.61,2.61,0,0,0,44.74,95.39Zm-2.61,19.82H27.53V100.6H42.14Z"/><path class="cls-1" d="M137.63,60.91l-8.25-4.76a8.29,8.29,0,0,0-11.31,3L93.38,102a2.61,2.61,0,0,0-.35,1.45l1.08,19a2.61,2.61,0,0,0,3.78,2.18l17-8.56a2.61,2.61,0,0,0,1.09-1l24.7-42.78A8.29,8.29,0,0,0,137.63,60.91Zm-39.12,47,9.71,5.6-9.13,4.6Zm14.24,2.2L99.2,102.31l17.61-30.5,13.55,7.83Zm23.39-40.52L133,75.13,119.41,67.3l3.18-5.51a3.07,3.07,0,0,1,4.19-1.12L135,65.43A3.07,3.07,0,0,1,136.15,69.62Z"/><path class="cls-1" d="M48.3,57.19a2.61,2.61,0,0,0-3.69,0L37.79,64,35.3,61.52a2.61,2.61,0,1,0-3.69,3.69l4.33,4.33a2.61,2.61,0,0,0,3.69,0l8.67-8.67A2.61,2.61,0,0,0,48.3,57.19Z"/><path class="cls-1" d="M128.73,111.09a2.61,2.61,0,0,0-2.61,2.61v15.81H13.44V76.62s0,0,0-.05,0,0,0-.05V39.26H97.69a2.61,2.61,0,0,0,0-5.22H13.44V20.48h93.5V37.06a2.61,2.61,0,0,0,2.61,2.61h16.57v7.42a2.61,2.61,0,0,0,5.22,0v-10a2.61,2.61,0,0,0-.76-1.84L111.4,16a2.61,2.61,0,0,0-1.84-.76H10.83a2.61,2.61,0,0,0-2.61,2.61V132.12a2.61,2.61,0,0,0,2.61,2.61h117.9a2.61,2.61,0,0,0,2.61-2.61V113.7A2.61,2.61,0,0,0,128.73,111.09ZM112.16,24.17l10.28,10.28H112.16Z"/></g></svg>