<svg xmlns="http://www.w3.org/2000/svg" width="150" height="150" viewBox="0 0 150 150"><defs><style>.cls-1{fill:#a9b1ab;}</style></defs><title>guia_estudios</title><g id="Layer_1" data-name="Layer 1"><path class="cls-1" d="M138.59,13.46H89.36a1.87,1.87,0,0,0-1.64.82l-6.15,8.21,3.28,2.46,5.54-7.38h46.15V118.08H87.31a2.33,2.33,0,0,0-1.64.62l-8.62,10.26V29.87a1.86,1.86,0,0,0-.62-1.44L62.08,14.08a1.86,1.86,0,0,0-1.44-.62H11.41a1.94,1.94,0,0,0-2.05,2.05V120.13a1.94,1.94,0,0,0,2.05,2.05H59.82l13.74,13.74a1.86,1.86,0,0,0,1.44.62,1.23,1.23,0,0,0,.82-.21c.21-.21.62-.41.82-.62h0L88.33,122h50.26a1.94,1.94,0,0,0,2.05-2.05V15.51A1.94,1.94,0,0,0,138.59,13.46ZM72.95,129.56,62.08,118.69a1.86,1.86,0,0,0-1.44-.62H13.46V17.56H59.82L72.95,30.69Z"/><path class="cls-1" d="M21.67,31.92A1.94,1.94,0,0,0,19.61,34V54.49a1.94,1.94,0,0,0,2.05,2.05H58.59a1.94,1.94,0,0,0,2.05-2.05V34a1.94,1.94,0,0,0-2.05-2.05ZM56.54,52.44H23.72V36H56.54Z"/><path class="cls-1" d="M58.59,85.26H21.67a1.94,1.94,0,0,0-2.05,2.05v20.51a1.94,1.94,0,0,0,2.05,2.05H58.59a1.94,1.94,0,0,0,2.05-2.05V87.31A1.94,1.94,0,0,0,58.59,85.26Zm-2.05,20.51H23.72V89.36H56.54Z"/><path class="cls-1" d="M125.72,56.49H88.8a1.94,1.94,0,0,0-2.05,2.05V79A1.94,1.94,0,0,0,88.8,81.1h36.92A1.94,1.94,0,0,0,127.77,79V58.54A1.94,1.94,0,0,0,125.72,56.49ZM123.67,77H90.85V60.59h32.82Z"/><rect class="cls-1" x="19.61" y="23.72" width="22.56" height="4.1"/><rect class="cls-1" x="19.61" y="62.69" width="22.56" height="4.1"/><rect class="cls-1" x="19.61" y="70.9" width="22.56" height="4.1"/><rect class="cls-1" x="120.13" y="27.82" width="10.26" height="4.1"/><rect class="cls-1" x="120.13" y="36.03" width="10.26" height="4.1"/><rect class="cls-1" x="120.13" y="44.23" width="10.26" height="4.1"/><rect class="cls-1" x="83.21" y="89.36" width="10.26" height="4.1"/><rect class="cls-1" x="83.21" y="97.56" width="10.26" height="4.1"/><rect class="cls-1" x="83.21" y="105.77" width="10.26" height="4.1"/><path class="cls-1" d="M98.73,93.45a5.13,5.13,0,1,0,5.13-5.13A5.08,5.08,0,0,0,98.73,93.45Zm6.15,0a1,1,0,1,1-1-1A1,1,0,0,1,104.88,93.45Z"/></g></svg>