<svg xmlns="http://www.w3.org/2000/svg" width="36.39" height="36.39" viewBox="0 0 36.39 36.39"><defs><style>.cls-1{fill:#6b72cf;}</style></defs><title>imagen_azul</title><g id="Layer_1" data-name="Layer 1"><path class="cls-1" d="M36.39,4.25a4.24,4.24,0,0,0-8.44-.61H1.82A1.82,1.82,0,0,0,0,5.46V7.89a.61.61,0,0,0,1.21,0V5.46a.61.61,0,0,1,.61-.61H27.95a4.2,4.2,0,0,0,.37,1.21H3.64A1.21,1.21,0,0,0,2.43,7.28V29.11a1.21,1.21,0,0,0,1.21,1.21H29.11a1.21,1.21,0,0,0,1.21-1.21V23.85a4.2,4.2,0,0,0,1.21.37V34.57a.61.61,0,0,1-.61.61H1.82a.61.61,0,0,1-.61-.61V12.74a.61.61,0,0,0-1.21,0V34.57a1.82,1.82,0,0,0,1.82,1.82H30.93a1.82,1.82,0,0,0,1.82-1.82V24.21a4.24,4.24,0,0,0,0-8.39V8.44a4.25,4.25,0,0,0,3.64-4.2m-4.25-3a3,3,0,1,1-3,3,3,3,0,0,1,3-3m-1.82,15V8.08a4.2,4.2,0,0,0,1.21.37v7.38a4.22,4.22,0,0,0-1.21.37m-6.07-3.45a3,3,0,1,1-3-3,3,3,0,0,1,3,3m.65-2.1,4.2-3.26v9.68l-.12.13-3.94-2.62a4.2,4.2,0,0,0-.14-3.92m2.34-3.36-3.09,2.4a4.25,4.25,0,1,0,.21,5.89l3.94,2.62a4.22,4.22,0,0,0,.8,4.79v1.64L24.51,20a1.21,1.21,0,0,0-1.72,0l-4,4-6.42-6.42a1.21,1.21,0,0,0-1.72,0l-7,7V7.28ZM3.64,29.11V26.33l7.89-7.88,8.67,8.67a.61.61,0,0,0,.86-.86l-1.39-1.39,4-4,5.46,5.46v2.78ZM35.18,20a3,3,0,1,1-3-3,3,3,0,0,1,3,3"/></g></svg>