<svg xmlns="http://www.w3.org/2000/svg" width="28.09" height="36.6" viewBox="0 0 28.09 36.6"><defs><style>.cls-1{fill:#6b72cf;}</style></defs><title>infografía_azul</title><g id="Layer_1" data-name="Layer 1"><polygon class="cls-1" points="1.28 1.83 1.28 9.76 1.28 34.77 0.01 34.77 0.01 9.76 0.01 1.83 1.28 1.83"/><path class="cls-1" d="M.65,7.32a.64.64,0,0,0,.59-.38.59.59,0,0,0-.14-.67L1,6.2.89,6.15l-.12,0H.65a.69.69,0,0,0-.45.18A.58.58,0,0,0,0,6.83a.61.61,0,0,0,.39.44A.66.66,0,0,0,.65,7.32Z"/><path class="cls-1" d="M27.9,5.67,22.16.18A.66.66,0,0,0,21.71,0H1.92A1.88,1.88,0,0,0,0,1.83V4.27a.62.62,0,0,0,.64.61.62.62,0,0,0,.64-.61V1.83a.63.63,0,0,1,.64-.61H21.07V5.49a1.25,1.25,0,0,0,1.28,1.22h4.47V34.77a.63.63,0,0,1-.64.61H1.92a.63.63,0,0,1-.64-.61V9.15a.62.62,0,0,0-.64-.61A.62.62,0,0,0,0,9.15V34.77A1.88,1.88,0,0,0,1.92,36.6H26.17a1.88,1.88,0,0,0,1.91-1.83V6.1A.6.6,0,0,0,27.9,5.67ZM22.34,2.08l3.56,3.41H22.34Z"/><path class="cls-1" d="M10.89,18.3a1.33,1.33,0,0,0,.84-.3L18,12.91a1.23,1.23,0,0,0-.05-2L11.68,6.36a1.36,1.36,0,0,0-1.38-.12,1.25,1.25,0,0,0-.72,1.13V17A1.29,1.29,0,0,0,10.89,18.3Zm0-10.94.05,0,6.31,4.58.39-.49-.38.55-6.31,5.09.41.47-.46-.5Z"/><path class="cls-1" d="M3.84,22a.6.6,0,0,0,.19.43.65.65,0,0,0,.45.18H23.62a.61.61,0,1,0,0-1.22H4.47a.65.65,0,0,0-.45.18A.6.6,0,0,0,3.84,22Z"/><path class="cls-1" d="M4.47,25.62H23.62a.61.61,0,1,0,0-1.22H4.47a.61.61,0,1,0,0,1.22Z"/><path class="cls-1" d="M4.47,28.67H23.62a.61.61,0,1,0,0-1.22H4.47a.61.61,0,1,0,0,1.22Z"/><path class="cls-1" d="M4.47,31.72H23.62a.61.61,0,1,0,0-1.22H4.47a.61.61,0,1,0,0,1.22Z"/></g></svg>