<svg xmlns="http://www.w3.org/2000/svg" width="150" height="150" viewBox="0 0 150 150"><defs><style>.cls-1{fill:#0077a5;}</style></defs><title>modalidad_mixta</title><g id="Layer_1" data-name="Layer 1"><rect class="cls-1" x="102.23" y="28.77" width="26.96" height="3.59"/><rect class="cls-1" x="102.23" y="17.98" width="26.96" height="3.59"/><path class="cls-1" d="M129.19,32.36a1.8,1.8,0,0,1-1.8-1.8V19.78a1.8,1.8,0,0,1,2.6-1.61l10.78,5.39a1.8,1.8,0,0,1,0,3.22L130,32.17A1.81,1.81,0,0,1,129.19,32.36Zm1.8-9.67v5l5-2.48Z"/><rect class="cls-1" x="37.54" y="19.78" width="3.59" height="10.78"/><rect class="cls-1" x="44.72" y="19.78" width="3.59" height="10.78"/><path class="cls-1" d="M71.68,32.36H37.54a7.19,7.19,0,0,1,0-14.38H71.68v3.59H37.54a3.59,3.59,0,0,0,0,7.19H71.68Z"/><path class="cls-1" d="M73.48,36H69.89V14.39a5.35,5.35,0,0,1,1.58-3.81,5.52,5.52,0,0,1,7.62,0,5.35,5.35,0,0,1,1.58,3.81v7.19H77.07V14.39a1.78,1.78,0,0,0-.53-1.27,1.84,1.84,0,0,0-2.54,0,1.78,1.78,0,0,0-.53,1.27V36Z"/><path class="cls-1" d="M87.86,21.58H84.26V10.8a1.78,1.78,0,0,0-.53-1.27,1.84,1.84,0,0,0-2.54,0,1.78,1.78,0,0,0-.53,1.27V21.58H77.07V10.8A5.35,5.35,0,0,1,78.65,7a5.52,5.52,0,0,1,7.62,0,5.35,5.35,0,0,1,1.58,3.81Z"/><path class="cls-1" d="M95,21.58H91.45V14.39a1.79,1.79,0,0,0-.53-1.27,1.84,1.84,0,0,0-2.54,0,1.79,1.79,0,0,0-.53,1.27v7.19H84.26V14.39a5.36,5.36,0,0,1,1.58-3.81,5.52,5.52,0,0,1,7.63,0A5.36,5.36,0,0,1,95,14.39Z"/><path class="cls-1" d="M96.84,59.32H93.25V53.6l5.39-14.38V18a1.79,1.79,0,0,0-.53-1.27,1.84,1.84,0,0,0-2.54,0A1.79,1.79,0,0,0,95,18v3.59H91.45V18A5.36,5.36,0,0,1,93,14.17a5.52,5.52,0,0,1,7.63,0A5.36,5.36,0,0,1,102.23,18V39.88L96.84,54.25Z"/><path class="cls-1" d="M75.28,59.32H71.68V54.65c-2-2.14-9-10-9-16.86V30.66h3.59v7.14c0,5.25,6.11,12.51,8.46,14.86l.53.53Z"/><path class="cls-1" d="M98.64,95.4H95V61.12H73.48V95.4H69.89V61.12a3.6,3.6,0,0,1,3.59-3.59H95a3.6,3.6,0,0,1,3.59,3.59Z"/><rect class="cls-1" x="77.07" y="64.71" width="3.59" height="3.59"/><path class="cls-1" d="M113.18,98.41a3.37,3.37,0,0,0-2.39-1H11.65a3.51,3.51,0,0,0-3.42,3.42v37.61a3.51,3.51,0,0,0,3.42,3.42h99.14a3.51,3.51,0,0,0,3.42-3.42V100.8A3.37,3.37,0,0,0,113.18,98.41Zm-2.39,40H11.65V100.8h99.14Z"/><rect class="cls-1" x="47.54" y="138.41" width="27.35" height="3.42"/><path class="cls-1" d="M62.93,99.09H59.51V95.67A1.75,1.75,0,0,0,57.8,94H47.54A4.66,4.66,0,0,1,44,92.42a4.92,4.92,0,0,1-1.54-3.59A4.66,4.66,0,0,1,44,85.24a4.92,4.92,0,0,1,3.59-1.54H68.06A1.75,1.75,0,0,0,69.76,82V80.29h3.42V82a4.66,4.66,0,0,1-1.54,3.59,5.7,5.7,0,0,1-3.59,1.54H47.54a1.71,1.71,0,0,0,0,3.42H57.8a4.66,4.66,0,0,1,3.59,1.54,4.92,4.92,0,0,1,1.54,3.59Z"/><rect class="cls-1" x="18.48" y="104.22" width="3.42" height="3.42"/><rect class="cls-1" x="25.32" y="104.22" width="3.42" height="3.42"/><rect class="cls-1" x="32.16" y="104.22" width="3.42" height="3.42"/><rect class="cls-1" x="39" y="104.22" width="3.42" height="3.42"/><rect class="cls-1" x="45.83" y="104.22" width="3.42" height="3.42"/><rect class="cls-1" x="52.67" y="104.22" width="3.42" height="3.42"/><rect class="cls-1" x="59.51" y="104.22" width="3.42" height="3.42"/><rect class="cls-1" x="66.35" y="104.22" width="3.42" height="3.42"/><rect class="cls-1" x="73.18" y="104.22" width="3.42" height="3.42"/><rect class="cls-1" x="80.02" y="104.22" width="3.42" height="3.42"/><rect class="cls-1" x="86.86" y="104.22" width="3.42" height="3.42"/><rect class="cls-1" x="93.7" y="104.22" width="3.42" height="3.42"/><rect class="cls-1" x="100.53" y="104.22" width="3.42" height="3.42"/><rect class="cls-1" x="15.06" y="111.06" width="3.42" height="3.42"/><rect class="cls-1" x="21.9" y="111.06" width="3.42" height="3.42"/><rect class="cls-1" x="28.74" y="111.06" width="3.42" height="3.42"/><rect class="cls-1" x="35.58" y="111.06" width="3.42" height="3.42"/><rect class="cls-1" x="42.41" y="111.06" width="3.42" height="3.42"/><rect class="cls-1" x="49.25" y="111.06" width="3.42" height="3.42"/><rect class="cls-1" x="56.09" y="111.06" width="3.42" height="3.42"/><rect class="cls-1" x="62.93" y="111.06" width="3.42" height="3.42"/><rect class="cls-1" x="69.76" y="111.06" width="3.42" height="3.42"/><rect class="cls-1" x="76.6" y="111.06" width="3.42" height="3.42"/><rect class="cls-1" x="83.44" y="111.06" width="3.42" height="3.42"/><rect class="cls-1" x="90.28" y="111.06" width="3.42" height="3.42"/><rect class="cls-1" x="97.11" y="111.06" width="3.42" height="3.42"/><rect class="cls-1" x="103.95" y="111.06" width="3.42" height="3.42"/><rect class="cls-1" x="18.48" y="117.89" width="3.42" height="3.42"/><rect class="cls-1" x="25.32" y="117.89" width="3.42" height="3.42"/><rect class="cls-1" x="32.16" y="117.89" width="3.42" height="3.42"/><rect class="cls-1" x="39" y="117.89" width="3.42" height="3.42"/><rect class="cls-1" x="45.83" y="117.89" width="3.42" height="3.42"/><rect class="cls-1" x="52.67" y="117.89" width="3.42" height="3.42"/><rect class="cls-1" x="59.51" y="117.89" width="3.42" height="3.42"/><rect class="cls-1" x="66.35" y="117.89" width="3.42" height="3.42"/><rect class="cls-1" x="73.18" y="117.89" width="3.42" height="3.42"/><rect class="cls-1" x="80.02" y="117.89" width="3.42" height="3.42"/><rect class="cls-1" x="86.86" y="117.89" width="3.42" height="3.42"/><rect class="cls-1" x="93.7" y="117.89" width="3.42" height="3.42"/><rect class="cls-1" x="100.53" y="117.89" width="3.42" height="3.42"/><rect class="cls-1" x="15.06" y="124.73" width="3.42" height="3.42"/><rect class="cls-1" x="21.9" y="124.73" width="3.42" height="3.42"/><rect class="cls-1" x="49.25" y="124.73" width="3.42" height="3.42"/><rect class="cls-1" x="56.09" y="124.73" width="3.42" height="3.42"/><rect class="cls-1" x="62.93" y="124.73" width="3.42" height="3.42"/><rect class="cls-1" x="69.76" y="124.73" width="3.42" height="3.42"/><rect class="cls-1" x="97.11" y="124.73" width="3.42" height="3.42"/><rect class="cls-1" x="103.95" y="124.73" width="3.42" height="3.42"/><rect class="cls-1" x="52.67" y="131.57" width="17.09" height="3.42"/></g></svg>