<svg xmlns="http://www.w3.org/2000/svg" width="60" height="85.33" viewBox="0 0 60 85.33"><defs><style>.cls-1{fill:#a9b1ab;}</style></defs><title>Modulo15</title><g id="Layer_1" data-name="Layer 1"><path class="cls-1" d="M23.56.67a30,30,0,0,0-16,49.23A19.48,19.48,0,0,1,12.5,62.67V73.42l6,11.91H41.54l6-11.91V62.67a19.74,19.74,0,0,1,5.07-12.93A30,30,0,0,0,23.56.67Zm14.9,79.66H21.54l-2.5-5H41Zm4-10h-25V65.17h25Zm-15-31.8v9.15c-1-.8-2.14-1.75-3.26-2.84-3.07-3-6.74-7.52-6.74-12.34,0-7.74,9.08-14.68,12.5-17,5.49,3.75,12.5,10.34,12.5,17,0,6.25-5.92,12-10,15.18V38.53h0l6.77-6.77-3.54-3.54L30,34l-5.73-5.73-3.54,3.54Zm21.31,7.91a25.07,25.07,0,0,0-6.18,13.72H32.5v-6.3c3.79-2.54,15-10.91,15-21.37,0-9.52-9.3-18-17.5-22.91C21.81,14.48,12.5,23,12.5,32.5c0,10.46,11.21,18.83,15,21.37v6.3H17.36a24.71,24.71,0,0,0-6.05-13.59,25,25,0,1,1,37.51-.14Z"/></g></svg>