<svg xmlns="http://www.w3.org/2000/svg" width="78.21" height="55.57" viewBox="0 0 78.21 55.57"><defs><style>.cls-1{fill:#a9b1ab;}.cls-2{fill:none;stroke:#a9b1ab;stroke-linecap:round;stroke-linejoin:round;stroke-width:5px;}</style></defs><title>Modulo8</title><g id="Layer_1" data-name="Layer 1"><path class="cls-1" d="M71.12,40.94h0l.24-.06.07,0,.2-.07.09,0,.15-.07a11.9,11.9,0,0,0-1.8-21.79A20.08,20.08,0,0,0,38.55,3.62a16,16,0,0,0-19.48,5A11.12,11.12,0,0,0,4.94,23.17,11.51,11.51,0,0,0,2.34,39.58a2.88,2.88,0,0,0,.58.57A2.88,2.88,0,0,0,5,41H70.49A2.84,2.84,0,0,0,71.12,40.94ZM11.52,26.87a2.89,2.89,0,1,0,0-5.77,11.67,11.67,0,0,0-1.17.06,5.36,5.36,0,0,1,7.93-6.54,2.93,2.93,0,0,0,.51.27l.07,0a2.89,2.89,0,0,0,3.87-1.31,10.22,10.22,0,0,1,19.38,4.53,2.89,2.89,0,1,0,5.77,0A15.93,15.93,0,0,0,43.63,7.3a14.31,14.31,0,0,1,20.7,11.76,2.89,2.89,0,0,0,2,5,6.12,6.12,0,0,1,3.43,11.19H6.4a5.74,5.74,0,0,1,5.11-8.36Z"/><path class="cls-1" d="M28.77,27.78a12.69,12.69,0,0,0,2.67-9,2.89,2.89,0,1,0-5.74.67,7.09,7.09,0,0,1-1.38,4.66c-1.14,1.38-3.05,2.17-5.67,2.36A2.89,2.89,0,0,0,16,29.33c0,.07,0,.14,0,.21a2.89,2.89,0,0,0,3.08,2.68C23.31,31.92,26.58,30.42,28.77,27.78Z"/><path class="cls-1" d="M64.25,30.56a2.89,2.89,0,0,0-1.81-3.66,7.9,7.9,0,0,1-5.61-9.47,2.89,2.89,0,0,0-5.61-1.36,14.65,14.65,0,0,0-.3,3.08c0,3.88,1.34,10.39,9.66,13.22A2.89,2.89,0,0,0,64.25,30.56Z"/><path class="cls-2" d="M32,38s.5,9.5,11.5,13.5C51.27,54.32,64,55,67,39"/></g></svg>