<svg xmlns="http://www.w3.org/2000/svg" width="68.67" height="62.42" viewBox="0 0 68.67 62.42"><defs><style>.cls-1{fill:#a9b1ab;}</style></defs><title>Modulo9</title><g id="Layer_1" data-name="Layer 1"><path class="cls-1" d="M37,40.81,29.12,33l.09-.09A54.68,54.68,0,0,0,40.79,12.5h9.15V6.24H28.09V0H21.85V6.24H0v6.21H34.86A49.29,49.29,0,0,1,25,29.18a49.22,49.22,0,0,1-7.21-10.46H11.52A54.81,54.81,0,0,0,20.82,33L4.95,48.64l4.42,4.42L25,37.45l9.71,9.71L37,40.81ZM54.62,25H48.38l-14,37.45h6.24l3.51-9.36H58.91l3.51,9.36h6.24ZM46.43,46.82,51.5,33.29l5.07,13.53Z"/></g></svg>