<svg xmlns="http://www.w3.org/2000/svg" width="92" height="70.92" viewBox="0 0 92 70.92"><defs><style>.cls-1{fill:none;stroke:#a9b1ab;stroke-linecap:round;stroke-linejoin:round;stroke-width:5px;}</style></defs><title>Modulo12</title><g id="Layer_1" data-name="Layer 1"><path class="cls-1" d="M21.5,60.42v-38s-1-16,15-14c0,0,2.5,14.5-13.5,14.5"/><path class="cls-1" d="M23.5,13.92s-2-14-17.5-11c0,0,1,15,13,15"/><path class="cls-1" d="M72.5,60.42v-38s-1-16,15-14c0,0,2.5,14.5-13.5,14.5"/><path class="cls-1" d="M74.5,13.92s-2-14-17.5-11c0,0,1,15,13,15"/><polyline class="cls-1" points="2.5 48.42 39.5 48.42 46.5 55.42 53 48.92 89.5 48.92"/><line class="cls-1" x1="2.5" y1="59.42" x2="8" y2="59.42"/><line class="cls-1" x1="33.5" y1="61.42" x2="39" y2="61.42"/><line class="cls-1" x1="18.5" y1="68.42" x2="24" y2="68.42"/><line class="cls-1" x1="69.5" y1="68.42" x2="75" y2="68.42"/><line class="cls-1" x1="82.5" y1="61.42" x2="88" y2="61.42"/><line class="cls-1" x1="57.5" y1="59.42" x2="63" y2="59.42"/></g></svg>