<svg xmlns="http://www.w3.org/2000/svg" width="74.6" height="68" viewBox="0 0 74.6 68"><defs><style>.cls-1{fill:none;stroke:#a9b1ab;stroke-linejoin:round;stroke-width:5px;}</style></defs><title>Modulo7</title><g id="Layer_1" data-name="Layer 1"><path class="cls-1" d="M70.84,65.5H15.94A13.44,13.44,0,0,1,2.5,52.06V15.94A13.44,13.44,0,0,1,15.94,2.5H48.06A13.44,13.44,0,0,1,61.5,15.94V51L71.81,63.45A1.25,1.25,0,0,1,70.84,65.5Z"/><circle class="cls-1" cx="31.5" cy="34.5" r="19"/><line class="cls-1" x1="50" y1="34.5" x2="12" y2="34.5"/><path class="cls-1" d="M28,16.5C22.46,29,22.86,41.14,28,53"/><path class="cls-1" d="M35,16.5C40.53,29,40.13,41.14,35,53"/></g></svg>