<svg xmlns="http://www.w3.org/2000/svg" width="75.27" height="88.69" viewBox="0 0 75.27 88.69"><defs><style>.cls-1{fill:#a9b1ab;}.cls-2,.cls-3{fill:none;stroke:#a9b1ab;stroke-miterlimit:10;}.cls-2{stroke-width:5px;}.cls-3{stroke-width:3.93px;}</style></defs><title>Modulo3</title><g id="Layer_1" data-name="Layer 1"><path class="cls-1" d="M42.23,0a33.08,33.08,0,0,0-33,32.33L.34,47.89a2.62,2.62,0,0,0,.77,3.44L9.19,57V71.24a2.62,2.62,0,0,0,2.62,2.62H24v12.2a2.62,2.62,0,0,0,2.62,2.62H61.6a2.62,2.62,0,0,0,2.62-2.62V57.69A33,33,0,0,0,42.23,0ZM42,83.44H29.3V71.24a2.62,2.62,0,0,0-2.62-2.62H14.44v-13a2.62,2.62,0,0,0-1.11-2.15L6.09,48.42l8-14.08a2.62,2.62,0,0,0,.34-1.3A27.79,27.79,0,1,1,59.93,54.47a2.62,2.62,0,0,0-1,2V83.44H47.23M32.91,11.75m17.31,0"/><polyline class="cls-2" points="43 86 43 50 29.5 36.5 29.5 28"/><line class="cls-2" x1="32.91" y1="39.91" x2="51" y2="22"/><line class="cls-2" x1="42.5" y1="49.5" x2="52.5" y2="39.5"/><circle class="cls-3" cx="30" cy="23" r="5.5"/><circle class="cls-3" cx="53.5" cy="19.5" r="5.5"/><circle class="cls-3" cx="56.5" cy="35.5" r="5.5"/></g></svg>