<svg xmlns="http://www.w3.org/2000/svg" width="150" height="150" viewBox="0 0 150 150"><defs><style>.cls-1{fill:#158a44;}</style></defs><title>perfil_ingreso</title><g id="Layer_1" data-name="Layer 1"><path class="cls-1" d="M135.18,55.44,83.52,14.85a14.16,14.16,0,0,0-17,0L14.82,55.44a7.51,7.51,0,0,0,4.64,13.41h.8a7.54,7.54,0,0,0,4.58-1.56L75,28.71l39.58,30.44,2.48-3.23L75,23.57,22.35,64.07a3.46,3.46,0,0,1-2.1.71h-.8a3.44,3.44,0,0,1-2.13-6.15L69,18a10,10,0,0,1,12,0l51.66,40.59a3.44,3.44,0,0,1-2.12,6.15h-.8a3.46,3.46,0,0,1-2.1-.72L120,58.17,117.5,61.4l7.66,5.89a7.54,7.54,0,0,0,4.58,1.56h.8a7.51,7.51,0,0,0,4.64-13.41Z"/><path class="cls-1" d="M135.95,128.33a14.15,14.15,0,0,0-8.07-9.14v-32a22.4,22.4,0,0,0-22.37-22.37c-.69,0-1.36,0-2,.1V54.61H85.85l-19-14.24V54.61H46.53V64.86c-.41,0-.82-.07-1.23-.07A23.2,23.2,0,0,0,22.12,88v9.37a8.14,8.14,0,0,0,6.6,8,16.31,16.31,0,0,0,7.64,10.16V116l-11.41,2.28a14.18,14.18,0,0,0-10.9,10L11.29,138H138.71ZM105.51,68.85a18.32,18.32,0,0,1,18.3,18.3v3.16a8,8,0,0,0-2.35-.94,6.09,6.09,0,0,0-5.79-4.26H95.34a6.09,6.09,0,0,0-5.79,4.26,8.09,8.09,0,0,0-2.35.94V87.15A18.32,18.32,0,0,1,105.51,68.85Zm7.86,46.78a16.32,16.32,0,0,0,7.92-10.32,8,8,0,0,0,2.53-1V118l-10.17-2v-.37Zm-7.86-2a12.22,12.22,0,0,1-12.2-12.2V91.22a2,2,0,0,1,2-2h20.34a2,2,0,0,1,2,2v10.17A12.22,12.22,0,0,1,105.51,113.59Zm3.65,3.64-3.65,3.65-3.65-3.65a15.78,15.78,0,0,0,7.31,0ZM89.73,105.3a16.31,16.31,0,0,0,7.92,10.32h-.28V116L87.2,118v-13.7A8,8,0,0,0,89.73,105.3Zm-2.53-8a4.05,4.05,0,0,1,2-3.5v7A4.05,4.05,0,0,1,87.2,97.32Zm34.58,3.5v-7a4,4,0,0,1,0,7ZM70.93,48.51l10.85,8.14L70.93,64.78ZM66.86,58.68V72.92l19-14.24H99.41v7A22.45,22.45,0,0,0,84.69,79H66.1a12.74,12.74,0,0,0-8.15-7.86,15.69,15.69,0,0,0-7.35-5.45v-7ZM28.22,100.82a4,4,0,0,1,0-7Zm-2-10.5V88A19.13,19.13,0,0,1,45.3,68.85,11.64,11.64,0,0,1,55,74l.44.65.76.19a8.69,8.69,0,0,1,6.59,8.45v7a8.05,8.05,0,0,0-4.07-1.13A22.51,22.51,0,0,1,45.3,84.71l-3-2.28-3,3a12.61,12.61,0,0,1-9,3.72A8.05,8.05,0,0,0,26.19,90.32Zm36.61,7a4.05,4.05,0,0,1-2,3.5v-7A4.05,4.05,0,0,1,62.8,97.32Zm-30.51,4.07V93.12a16.62,16.62,0,0,0,9.82-4.77l.54-.54.21.16A26.64,26.64,0,0,0,56.7,93.17v8.22a12.2,12.2,0,0,1-24.41,0Zm15.86,15.84-3.65,3.65-3.65-3.65a15.78,15.78,0,0,0,7.31,0Zm-31.47,16.7L18,129.44a10.13,10.13,0,0,1,7.78-7.18l12-2.39,6.77,6.77,6.77-6.77,12,2.39A10.13,10.13,0,0,1,71,129.44l1.28,4.49Zm58.39-5.61-.07.24-.07-.24a14.18,14.18,0,0,0-10.9-10L52.63,116v-.53a16.31,16.31,0,0,0,7.64-10.16,8.14,8.14,0,0,0,6.6-8v-14c0-.09,0-.16,0-.25H83.52a22.35,22.35,0,0,0-.39,4.07v32A14.15,14.15,0,0,0,75.07,128.33Zm2.63,5.61L79,129.44a10.13,10.13,0,0,1,7.78-7.18l12-2.39,6.77,6.77,6.77-6.77,12,2.39a10.13,10.13,0,0,1,7.78,7.18l1.28,4.49Z"/></g></svg>