<svg xmlns="http://www.w3.org/2000/svg" width="204.63" height="150" viewBox="0 0 204.63 150"><defs><style>.cls-1{fill:#158287;}</style></defs><title>perfil_docente</title><g id="Layer_1" data-name="Layer 1"><path class="cls-1" d="M75.19,111.91a14.25,14.25,0,0,0-11.15,10l-4.76,15.88h79.09l-4.76-15.88a14.25,14.25,0,0,0-11.15-10l-13.41-2.44v-1.06a20.49,20.49,0,0,0,9.84-13.76,8.19,8.19,0,0,0,6.52-8V66.45a12.82,12.82,0,0,0-9.16-12.3l-1-1A25,25,0,0,0,105,46.91V25.31a6.14,6.14,0,0,0-6.13-6.13H69.49a12.25,12.25,0,0,0-23.1,0H17.06a6.14,6.14,0,0,0-6.13,6.13V86.64a6.14,6.14,0,0,0,6.13,6.13H41.59V101H37.5V105H78.39V101H74.3V92.77h.78a8.12,8.12,0,0,0,3.69,1.87,20.49,20.49,0,0,0,9.84,13.76v1.06Zm44.08-21.74v-7a4.05,4.05,0,0,1,0,7ZM70.21,29.4V23.27H98.83a2,2,0,0,1,2,2V46a25.36,25.36,0,0,0-3.45-.26A25,25,0,0,0,80.85,52l-1.12-3.91a10.27,10.27,0,0,0-8.15-7.28l-5.46-.91V38.5A12.12,12.12,0,0,0,70.21,29.4Zm0,71.55H45.68V92.77H70.21Zm2-30v5.49H68.16v4.09h4.09v6.13a8.05,8.05,0,0,0,.29,2H17.06a2,2,0,0,1-2-2V80.51H64.08V76.42H15V25.31a2,2,0,0,1,2-2H45.68V29.4a12.12,12.12,0,0,0,4.09,9.1v1.44l-5.46.91a10.26,10.26,0,0,0-8.15,7.27L32.74,60.07h42A25,25,0,0,0,72.25,70.93ZM38.17,56l1.92-6.73A6.16,6.16,0,0,1,45,44.88l8.88-1.48V36.51L53,35.9a8.1,8.1,0,0,1-3.28-6.5V23.27a8.18,8.18,0,0,1,16.35,0V29.4a8.1,8.1,0,0,1-3.28,6.5l-.81.61V43.4l8.88,1.48a6.16,6.16,0,0,1,4.89,4.36l1.79,6.25-.36.48ZM78.39,90.16a4.05,4.05,0,0,1,0-7Zm0-13.74v2.33a8,8,0,0,0-2,.85V70.93a21.08,21.08,0,0,1,36-14.91l1.8,1.8.55.14a8.74,8.74,0,0,1,6.63,8.49V79.6a8,8,0,0,0-2-.85V76.42h-6.48a17.78,17.78,0,0,1-14.16-7.08L97,67.17l-4.06,4.06a17.58,17.58,0,0,1-12.51,5.18Zm4.09,14.31V80.41a21.63,21.63,0,0,0,13.36-6.29l.8-.8a21.91,21.91,0,0,0,16.16,7.18h2.4V90.73a16.35,16.35,0,0,1-32.71,0Zm10.39,19.55a20.38,20.38,0,0,0,11.92,0l-6,4.47Zm2.85,7.25-4.17,4.17-2.71-8.12,1.3-.24Zm11.8-4.18,1.3.24-2.71,8.12-4.17-4.17ZM89.76,129.27l9.07-9.07,9.07,9.07,5-14.95,8.85,1.61a10.17,10.17,0,0,1,8,7.12l3.18,10.61H64.78L68,123a10.17,10.17,0,0,1,8-7.12l8.85-1.61Z"/><path class="cls-1" d="M129,72.45a26.63,26.63,0,0,0-.46,4.85v38.17c-2,2,8.82,22.42,8.82,22.42h57.41l-3.29-11.53a16.86,16.86,0,0,0-9.61-10.89V77.3a26.69,26.69,0,0,0-26.66-26.66c-.82,0-1.62.05-2.42.12l-4.85.91A26.75,26.75,0,0,0,130.36,67.6,25.8,25.8,0,0,0,129,72.45Zm26.2-17A21.84,21.84,0,0,1,177,77.3v3.77a9.5,9.5,0,0,0-2.8-1.12,7.26,7.26,0,0,0-6.9-5.08H143a7.26,7.26,0,0,0-6.9,5.08,9.64,9.64,0,0,0-2.8,1.12V77.3A21.84,21.84,0,0,1,155.17,55.48Zm9.37,55.75A19.44,19.44,0,0,0,174,98.93a9.54,9.54,0,0,0,3-1.16v16.33l-12.12-2.42v-.44Zm-9.37-2.42a14.56,14.56,0,0,1-14.54-14.54V82.14A2.42,2.42,0,0,1,143,79.72h24.24a2.42,2.42,0,0,1,2.42,2.42V94.26A14.56,14.56,0,0,1,155.17,108.8Zm4.36,4.34-4.36,4.36-4.36-4.36a18.8,18.8,0,0,0,8.71,0ZM136.37,98.93a19.43,19.43,0,0,0,9.43,12.3h-.33v.44l-12.12,2.42V97.76A9.55,9.55,0,0,0,136.37,98.93Zm-3-9.51a4.83,4.83,0,0,1,2.42-4.17v8.35A4.83,4.83,0,0,1,133.35,89.41Zm41.2,4.17V85.24a4.81,4.81,0,0,1,0,8.35Zm-41.73,25.55,14.27-2.85,8.07,8.07,8.07-8.07,14.27,2.85a12.07,12.07,0,0,1,9.27,8.55l1.53,5.35H137S132.88,119.94,132.83,119.14Z"/></g></svg>