<svg xmlns="http://www.w3.org/2000/svg" width="205.32" height="150" viewBox="0 0 205.32 150"><defs><style>.cls-1{fill:#37ba74;}</style></defs><title>perfil_estudiante</title><g id="Layer_1" data-name="Layer 1"><path class="cls-1" d="M69.83,44.29v-14l-6-1.6q-.27-.69-.58-1.39l3.12-5.39-9.93-9.93L51,15.05c-.46-.21-.92-.4-1.39-.58L48,8.46H34l-1.61,6q-.69.27-1.39.58l-5.39-3.12-9.93,9.93,3.12,5.39c-.21.46-.41.93-.58,1.39l-6,1.6v14l6,1.6c.18.46.37.93.58,1.39l-3.12,5.39,9.93,9.93L31,59.49c.46.21.92.4,1.39.58l1.61,6H48l1.61-6q.69-.27,1.39-.58l5.39,3.12,9.93-9.93-3.12-5.39c.21-.46.41-.93.58-1.39Zm-9,7.66L55.7,57.07l-4.51-2.61L50.11,55a20.18,20.18,0,0,1-3,1.25L46,56.63l-1.34,5H37.4l-1.34-5-1.15-.37a20.42,20.42,0,0,1-3-1.25l-1.08-.55-4.51,2.61L21.22,52l2.61-4.51-.55-1.08a19.82,19.82,0,0,1-1.25-3l-.37-1.15-5-1.34V33.65l5-1.34L22,31.16a20,20,0,0,1,1.25-3l.55-1.08-2.61-4.51,5.12-5.12,4.51,2.61,1.08-.55a20.18,20.18,0,0,1,3-1.25l1.15-.37,1.34-5h7.23l1.34,5,1.15.37a20.42,20.42,0,0,1,3,1.25l1.08.55,4.51-2.61,5.12,5.12L58.2,27.1l.55,1.08a19.82,19.82,0,0,1,1.25,3l.37,1.15,5,1.34v7.23l-5,1.34L60,43.38a20,20,0,0,1-1.25,3l-.55,1.08Z"/><path class="cls-1" d="M53.47,46.53a15.51,15.51,0,1,0-3,3l-2.7-3.51A11,11,0,0,1,41,48.35,11.08,11.08,0,1,1,52.1,37.27a11,11,0,0,1-2.19,6.61Z"/><path class="cls-1" d="M147.49,35.7l-2.87,2.87V30.62A22.19,22.19,0,0,0,122.47,8.46h-13.3v4.43h13.3A17.75,17.75,0,0,1,140.2,30.62v7.95l-2.87-2.87-3.13,3.13,8.22,8.22,8.22-8.22Z"/><path class="cls-1" d="M23.29,123.7v-7.95l2.87,2.87,3.13-3.13-8.22-8.22-8.22,8.22L16,118.62l2.87-2.87v7.95A22.19,22.19,0,0,0,41,145.87v-4.43A17.75,17.75,0,0,1,23.29,123.7Z"/><rect class="cls-1" x="12.21" y="74.95" width="57.62" height="4.43"/><rect class="cls-1" x="12.21" y="92.68" width="57.62" height="4.43"/><rect class="cls-1" x="12.21" y="83.81" width="26.59" height="4.43"/><polygon class="cls-1" points="55.98 83.81 45.45 83.81 43.23 83.81 43.23 88.24 45.45 88.24 55.98 88.24 69.83 88.24 69.83 83.81 55.98 83.81"/><rect class="cls-1" x="100.3" y="8.46" width="4.43" height="4.43"/><rect class="cls-1" x="91.44" y="8.46" width="4.43" height="4.43"/><rect class="cls-1" x="45.45" y="141.43" width="4.43" height="4.43"/><rect class="cls-1" x="54.32" y="141.43" width="4.43" height="4.43"/><path class="cls-1" d="M161.6,66.11A23.38,23.38,0,0,0,146.27,80H126.91a13.27,13.27,0,0,0-8.49-8.19,16.34,16.34,0,0,0-7.66-5.68l-4.24-.89c-.43,0-.85-.08-1.28-.08A24.16,24.16,0,0,0,81.11,89.34v9.75A8.48,8.48,0,0,0,88,107.41a17,17,0,0,0,8,10.58v.55l-11.88,2.38a14.77,14.77,0,0,0-11.35,10.47l-2.88,10.08H202.54l-2.88-10.08a14.74,14.74,0,0,0-8.4-9.52V88.5A23.33,23.33,0,0,0,168,65.2c-.72,0-1.42,0-2.12.11ZM168,69.44A19.08,19.08,0,0,1,187,88.5v3.3a8.3,8.3,0,0,0-2.45-1,6.34,6.34,0,0,0-6-4.44H157.36a6.34,6.34,0,0,0-6,4.44,8.42,8.42,0,0,0-2.45,1V88.5A19.08,19.08,0,0,1,168,69.44Zm8.18,48.72a17,17,0,0,0,8.24-10.75,8.34,8.34,0,0,0,2.63-1v14.27l-10.59-2.12v-.38ZM168,116a12.72,12.72,0,0,1-12.71-12.71V92.74a2.12,2.12,0,0,1,2.12-2.12h21.18a2.12,2.12,0,0,1,2.12,2.12v10.59A12.72,12.72,0,0,1,168,116Zm3.81,3.79L168,123.63l-3.81-3.81a16.43,16.43,0,0,0,7.61,0Zm-20.23-12.42a17,17,0,0,0,8.24,10.75h-.29v.38l-10.59,2.12V106.39A8.34,8.34,0,0,0,151.53,107.41Zm-2.63-8.31A4.22,4.22,0,0,1,151,95.45v7.29A4.22,4.22,0,0,1,148.89,99.09Zm36,3.65V95.45a4.2,4.2,0,0,1,0,7.29Zm-97.44,0a4.2,4.2,0,0,1,0-7.29ZM85.35,91.8V89.34a19.92,19.92,0,0,1,19.9-19.9,12.12,12.12,0,0,1,10.11,5.41l.45.68.8.2a9.05,9.05,0,0,1,6.87,8.8V91.8a8.39,8.39,0,0,0-4.24-1.18,23.45,23.45,0,0,1-14-4.66l-3.16-2.37-3.16,3.16a13.14,13.14,0,0,1-9.35,3.87A8.39,8.39,0,0,0,85.35,91.8Zm38.13,7.29a4.22,4.22,0,0,1-2.12,3.65V95.45A4.22,4.22,0,0,1,123.47,99.09ZM91.7,103.33V94.72a17.31,17.31,0,0,0,10.23-5l.56-.56.22.17a27.75,27.75,0,0,0,14.41,5.42v8.56a12.71,12.71,0,0,1-25.42,0Zm16.52,16.5-3.81,3.81-3.81-3.81a16.43,16.43,0,0,0,7.61,0ZM75.45,137.22l1.34-4.68a10.55,10.55,0,0,1,8.1-7.47l12.47-2.49,7,7,7-7,12.47,2.49a10.55,10.55,0,0,1,8.1,7.47l1.34,4.68Zm60.81-5.84-.07.25-.07-.25a14.77,14.77,0,0,0-11.35-10.47l-11.88-2.38V118a17,17,0,0,0,8-10.58,8.48,8.48,0,0,0,6.87-8.31V84.53c0-.09,0-.17,0-.26h17.37a23.28,23.28,0,0,0-.4,4.24v33.36A14.74,14.74,0,0,0,136.25,131.38Zm2.74,5.84,1.34-4.68a10.55,10.55,0,0,1,8.1-7.47l12.47-2.49,7,7,7-7,12.47,2.49a10.55,10.55,0,0,1,8.1,7.47l1.34,4.68Z"/></g></svg>