<svg xmlns="http://www.w3.org/2000/svg" width="150" height="150" viewBox="0 0 150 150"><defs><style>.cls-1{fill:#40b5b5;}</style></defs><title>perfil_egreso</title><g id="Layer_1" data-name="Layer 1"><rect class="cls-1" x="72.97" y="30.29" width="32.52" height="4.06"/><rect class="cls-1" x="72.97" y="38.42" width="32.52" height="4.06"/><rect class="cls-1" x="36.39" y="95.32" width="36.58" height="4.06"/><rect class="cls-1" x="36.39" y="111.58" width="36.58" height="4.06"/><rect class="cls-1" x="36.39" y="103.45" width="16.26" height="4.06"/><rect class="cls-1" x="56.71" y="103.45" width="16.26" height="4.06"/><rect class="cls-1" x="36.39" y="119.71" width="16.26" height="4.06"/><rect class="cls-1" x="56.71" y="119.71" width="16.26" height="4.06"/><path class="cls-1" d="M133.94,89.6V62.81a4.72,4.72,0,0,0-3.45-4.53l-16.88-4.69V20.13H57.44c-.12-.13-.22-.27-.34-.39a10.06,10.06,0,0,0-9.87-2.58,10.1,10.1,0,0,0-17.62,0A10.1,10.1,0,0,0,17.16,29.61a10.1,10.1,0,0,0,0,17.62,10.12,10.12,0,0,0,7,12.47V87.47l4.06-3.39V138H88l25.58-25.58V84.08l12.19-3.48v-12l4.06-1.13V89.6a6.09,6.09,0,0,0-4.06,5.72v14.23H138V95.32A6.09,6.09,0,0,0,133.94,89.6ZM60.77,38.42a6.05,6.05,0,0,1-4.3,5.79l-.81.25a17.95,17.95,0,0,0,0-12.08l.81.25A6.05,6.05,0,0,1,60.77,38.42ZM54.23,54.23a6.05,6.05,0,0,1-7.13,1.05l-.75-.4a18.37,18.37,0,0,0,8.54-8.54l.4.75A6,6,0,0,1,54.23,54.23ZM47.09,21.56a6,6,0,0,1,8.18,8.18l-.4.75A18.38,18.38,0,0,0,46.34,22ZM32.63,20.37a6,6,0,0,1,11.57,0l.25.81a17.95,17.95,0,0,0-12.08,0Zm5.79,3.83A14.23,14.23,0,1,1,24.19,38.42,14.24,14.24,0,0,1,38.42,24.19Zm6,31.47-.25.81a6,6,0,0,1-11.57,0l-.25-.81a17.95,17.95,0,0,0,12.08,0ZM22.61,22.61a6,6,0,0,1,7.13-1.05l.75.4A18.38,18.38,0,0,0,22,30.5l-.4-.75A6,6,0,0,1,22.61,22.61ZM16.06,38.42a6.05,6.05,0,0,1,4.3-5.79l.81-.25a17.95,17.95,0,0,0,0,12.08l-.81-.25A6.05,6.05,0,0,1,16.06,38.42Zm6.55,15.81a6.05,6.05,0,0,1-1.05-7.13l.4-.75a18.37,18.37,0,0,0,8.54,8.54l-.75.4A6.05,6.05,0,0,1,22.61,54.23ZM28.26,60a10.14,10.14,0,0,0,1.35-.28,10.1,10.1,0,0,0,17.62,0,10.07,10.07,0,0,0,1.35.28V78.79L38.42,70.32,28.26,78.79Zm81.29,49.58H85.16v20.32h4.06V113.61h17.45L86.35,133.94h-54V80.69l6.1-5.08L52.64,87.47V59.7a10.11,10.11,0,0,0,7-12.47,10.1,10.1,0,0,0,0-17.62,10.07,10.07,0,0,0,0-5.42h49.86V52.45l-14.23-4L60.16,58.27a4.71,4.71,0,0,0,0,9.07l4.68,1.3v12l30.48,8.71,14.23-4.06Zm12.19-32L95.32,85.08,68.9,77.53V69.77l26.42,7.34,26.42-7.34Zm7.66-14.11L95.32,72.89,61.24,63.42a.64.64,0,0,1,0-1.24l34.08-9.47,34.08,9.47a.64.64,0,0,1,0,1.24Zm4.53,42.06h-4.06V95.32a2,2,0,1,1,4.06,0Z"/></g></svg>