<svg xmlns="http://www.w3.org/2000/svg" width="150" height="150" viewBox="0 0 150 150"><defs><style>.cls-1{fill:#a9b1ab;}</style></defs><title>portafolio_evidencias</title><g id="Layer_1" data-name="Layer 1"><path class="cls-1" d="M136.9,67.45H89.63L72.75,50.57A2.52,2.52,0,0,0,71,49.84H34.24a2.52,2.52,0,0,0-2.52,2.52v74a8.05,8.05,0,1,1-16.1,0V54.87h7.3a2.52,2.52,0,0,0,0-5H13.1a2.52,2.52,0,0,0-2.52,2.52v74a13.1,13.1,0,0,0,13.08,13.08H126.84a12.6,12.6,0,0,0,12.58-12.58V70A2.52,2.52,0,0,0,136.9,67.45Zm-2.52,59.38a7.56,7.56,0,0,1-7.55,7.55H34a13,13,0,0,0,2.78-8.05V54.87H69.93L86.81,71.75a2.52,2.52,0,0,0,1.78.74h45.8Z"/><path class="cls-1" d="M41.78,43.8a2.52,2.52,0,0,0,2.52-2.52V18.68a3.07,3.07,0,0,1,3.06-3.06h56.4V32.35a8.11,8.11,0,0,0,8.1,8.1h16.73V58.23a2.52,2.52,0,1,0,5,0V37.93a2.52,2.52,0,0,0-.74-1.78L108.06,11.32a2.52,2.52,0,0,0-1.78-.74H47.36a8.11,8.11,0,0,0-8.1,8.1v22.6A2.52,2.52,0,0,0,41.78,43.8Zm67-11.45V19.17L125,35.41H111.86A3.07,3.07,0,0,1,108.8,32.35Z"/><path class="cls-1" d="M57.89,43.8H93.75a2.52,2.52,0,0,0,0-5H57.89a2.52,2.52,0,1,0,0,5Z"/><path class="cls-1" d="M93.75,26.69H68a2.52,2.52,0,1,0,0,5h25.8a2.52,2.52,0,1,0,0-5Z"/><path class="cls-1" d="M57.89,31.72A2.52,2.52,0,1,0,56.11,31,2.54,2.54,0,0,0,57.89,31.72Z"/></g></svg>