<svg xmlns="http://www.w3.org/2000/svg" width="32.39" height="32.39" viewBox="0 0 32.39 32.39"><defs><style>.cls-1{fill:#f7741e;}</style></defs><title>video_naranja</title><g id="Layer_1" data-name="Layer 1"><polygon class="cls-1" points="0 29.69 0 22.68 0 2.7 1.08 2.7 1.08 22.68 1.08 29.69 0 29.69"/><path class="cls-1" d="M.33,25.87l.1,0H.54a.57.57,0,0,0,.38-.16.56.56,0,0,0,0-.77.56.56,0,0,0-.18-.11.54.54,0,0,0-.21,0A.57.57,0,0,0,.16,25a.55.55,0,0,0,0,.77l.08.06Z"/><path class="cls-1" d="M29.69,0H2.7A2.7,2.7,0,0,0,0,2.7V23.21a.54.54,0,0,0,1.08,0V9.72H31.31v20a1.62,1.62,0,0,1-1.62,1.62H2.7a1.62,1.62,0,0,1-1.62-1.62V27.53a.54.54,0,0,0-1.08,0v2.16a2.7,2.7,0,0,0,2.7,2.7h27a2.7,2.7,0,0,0,2.7-2.7V2.7A2.7,2.7,0,0,0,29.69,0Zm1.62,2.7V4.32h-.86L27.22,1.08h2.48A1.62,1.62,0,0,1,31.31,2.7Zm-9,5.94L25.6,5.4h3.33L25.69,8.64Zm-4.86,0L20.74,5.4h3.33L20.83,8.64Zm-4.86,0L15.88,5.4h3.33L16,8.64Zm-4.86,0L11,5.4h3.33L11.11,8.64Zm-4.86,0L6.16,5.4H9.49L6.26,8.64Zm-1.84,0V5.4H4.64L1.4,8.64ZM6.26,1.08,9.49,4.32H6.16L2.92,1.08Zm4.86,0,3.24,3.24H11L7.78,1.08Zm4.86,0,3.24,3.24H15.88L12.64,1.08Zm4.86,0,3.24,3.24H20.74L17.5,1.08ZM25.6,4.32,22.36,1.08h3.33l3.24,3.24ZM1.73,1.41,4.64,4.32H1.08V2.7A1.61,1.61,0,0,1,1.73,1.41ZM27.22,8.64,30.46,5.4h.86V8.64Z"/><path class="cls-1" d="M12.73,27.53a1.4,1.4,0,0,0,.88-.32l8-6.51a1.36,1.36,0,0,0-.06-2.16l-8-5.86a1.4,1.4,0,0,0-1.47-.12,1.36,1.36,0,0,0-.75,1.22V26.16a1.36,1.36,0,0,0,.79,1.24A1.42,1.42,0,0,0,12.73,27.53Zm-.32-13.74a.28.28,0,0,1,.16-.26.35.35,0,0,1,.15,0,.32.32,0,0,1,.19.06l8,5.86a.28.28,0,0,1,0,.45l-8,6.51a.33.33,0,0,1-.35,0,.29.29,0,0,1-.17-.26Z"/></g></svg>